<svg version="1.1" id="Layer_1" xmlns="http://www.w3.org/2000/svg" x="0" y="0" viewBox="0 0 683 180" style="enable-background:new 0 0 683 180" xml:space="preserve"><style>.st0{fill:#fff}.st1{fill:#dfa746}</style><path class="st0" d="M33.8 112.8c5 0 9.6-1.2 13.8-3.5 4.1-2.3 7.3-5.4 9.5-9.2l6.4 2.5c-2.8 5-6.8 9-12.1 11.9-5.4 3.1-11.3 4.6-17.7 4.6-4.5 0-8.8-.8-12.9-2.3-4-1.5-7.5-3.7-10.6-6.4-3.1-2.8-5.5-5.9-7.1-9.5C1.4 97.2.5 93.3.5 89.3s.9-7.9 2.6-11.7c1.7-3.6 4.1-6.7 7.1-9.5 3.1-2.8 6.6-4.9 10.6-6.4 4.1-1.6 8.4-2.3 12.9-2.3 6.4 0 12.3 1.5 17.7 4.6 5.2 3 9.3 7 12.1 11.9l-6.4 2.5c-2.2-3.9-5.4-6.9-9.5-9.2-4.2-2.4-8.8-3.5-13.8-3.5-7.2 0-13.4 2.3-18.6 6.9-5.1 4.6-7.7 10.2-7.7 16.7s2.6 12.1 7.7 16.7c5.1 4.5 11.3 6.8 18.6 6.8zM103.3 111.7h32.9v6.4h-40V60.4h7.1v51.3zM219.5 60.4v35.1c0 6.5-2.6 12.1-7.7 16.7s-11.3 6.9-18.5 6.9c-7.3 0-13.5-2.3-18.6-6.9S167 102 167 95.5V60.4h7v35.1c0 4.8 1.9 8.9 5.7 12.3 3.8 3.4 8.3 5.1 13.6 5.1 5.3 0 9.8-1.7 13.6-5.1 3.8-3.4 5.7-7.5 5.7-12.3V60.4h6.9zM289 90.7c3.5 3.1 5.2 6.9 5.2 11.3s-1.7 8.2-5.1 11.3c-3.5 3.1-7.6 4.7-12.5 4.7h-25.4V60.4H275c4.9 0 9 1.6 12.5 4.7s5.2 6.8 5.2 11.2c0 4.4-1.7 8.2-5.1 11.3-.4.3-.8.7-1.3 1 .9.7 1.9 1.3 2.7 2.1zm-30.6-23.9v19.3h16.7c2.9 0 5.5-1 7.5-2.9 2.1-1.9 3.1-4.1 3.1-6.8s-1.1-4.9-3.2-6.8-4.6-2.8-7.6-2.8h-16.5zm18.2 44.9c2.9 0 5.5-1 7.6-2.9s3.1-4.2 3.1-6.8c0-2.7-1.1-4.9-3.2-6.8s-4.6-2.8-7.6-2.8h-18.2v19.3h18.3zM375.5 60.4v57.7h-7.1V92.4h-34.5v25.7h-7.1V60.4h7.1V86h34.5V60.4h7.1zM546.8 60.4v35.1c0 6.5-2.6 12.1-7.7 16.7s-11.3 6.9-18.5 6.9c-7.3 0-13.5-2.3-18.6-6.9s-7.7-10.2-7.7-16.7V60.4h7v35.1c0 4.8 1.9 8.9 5.7 12.3s8.3 5.1 13.6 5.1 9.8-1.7 13.6-5.1 5.7-7.5 5.7-12.3V60.4h6.9zM597.2 119.1c-5.3 0-10.1-1.1-14.3-3.4-5.2-2.7-8.6-6.6-10.3-11.7l6.7-1.8c1.2 3.6 3.6 6.3 7.3 8.2 3.1 1.6 6.7 2.4 10.7 2.4h1.6c.4 0 1-.1 1.6-.2 1.8-.2 3.4-.7 4.8-1.2 4.2-1.7 6.4-4.7 6.8-8.8.2-2.2-.5-4.1-2.1-5.8-2.5-2.6-6.5-4.1-12.1-4.4-9.3-.6-16-2.5-20.2-5.9-3.2-2.5-4.7-5.8-4.7-9.8 0-5.4 2.4-9.7 7.1-12.9 4.3-2.9 9.4-4.4 15.5-4.4 7.2 0 13.2 2.3 18 6.9 1.5 1.5 2.8 3.1 4 4.9.4.6.8 1.4 1.3 2.5l-6.5 2.2c-.4-.8-.8-1.5-1.4-2.4s-1.4-1.8-2.5-2.8c-3.5-3.3-7.8-4.9-12.9-4.9-1.5 0-3.1.2-4.7.5-1.9.4-3.6 1-5.1 1.7-3.9 2-5.8 5-5.8 8.8 0 5.6 6.2 8.7 18.5 9.4 7.4.5 13.1 2.7 16.8 6.6 2.9 3 4.2 6.5 3.8 10.4-.5 5.2-3 9.3-7.5 12.2-4.1 2.4-8.8 3.7-14.4 3.7zM682.5 111.7v6.4h-38.2V60.4h38.2v6.4h-31.1v19.1h25.1v6.4h-25.1v19.5h31.1v-.1z"/><path class="st1" d="M438.2 67.1c-5.7.8-9.9 6.1-9.3 11.8.3 3.4 2.2 6.2 4.8 8 .5.3.9.4 1.4.4.9-.1 1.6-1 1.5-1.9-.1-.6-.4-.9-.9-1.3-1.7-1.1-2.9-2.9-3.2-5.1-.5-4 2.3-7.7 6.3-8.2s7.7 2.2 8.2 6.2c0 0 .1.5.1 1.3 0-.4 0-.8-.1-1.3v-.1V79v-.2c-.2 2-1.2 5.3-5 8.8-.5.5-.8 1-.7 1.6.1 1 1 1.6 2 1.5.1 0 .3-.1.4-.1.2-.1.4-.2.5-.4l.1-.1c7.5-6.8 6.1-13.5 6.1-13.5v-.2c-.6-6-6.2-10.2-12.2-9.3zM460.8 107h-.3.3z"/><path class="st1" d="M458.2 85.6c-.6 0-1.1 0-1.7.1l.5-.1s-5.7.1-12.5 8.7l-.1.1c-.1.3-.1.5-.1.8.1 1 .9 1.7 1.9 1.6.5 0 .9-.3 1.2-.6 5.5-7.3 10.6-7.1 10.6-7.1h.2c4 0 7.3 3.3 7.3 7.3 0 3.5-2.3 6.3-5.6 7.1-7.7 2.3-12.8-2.8-23.4-10.5-7.6-5.6-10.8-6.8-12.2-7.2-.1 0-.4-.1-.5-.1-.2 0-.3-.1-.3-.1h.1c-.6-.1-1.2-.2-1.8-.2-6 0-10.9 4.9-10.9 10.9 0 5.8 4.5 10.5 10.1 10.8h-.1 1.5-.2c2.3-.1 7.3-.9 12.3-5.5.4-.3.7-.7.7-1.3.1-1-.6-1.8-1.6-1.9-.5 0-1 .1-1.4.5-4.9 4.4-9.1 4.8-10.9 4.7h-.2.1l-1.1-.1h.1c.2 0 .4.1.7.1-.3 0-.6-.1-.7-.1-3.4-.6-5.9-3.6-5.9-7.2 0-4 3.3-7.3 7.3-7.3h.9s3.1 0 12.9 7.5c10.4 7.9 14.7 12.4 25.2 10.3 4.8-1.1 8.3-5.4 8.3-10.6.1-5.8-4.7-10.6-10.7-10.6z"/><path class="st1" d="M451.2 115s-4.9-3.9-7.7-9.1c-.4-.8-1.4-1.1-2.2-.7s-1.1 1.4-.7 2.2c1.6 3 3.7 5.5 5.4 7.3h-38.5c-1.3 0-2.3-1-2.3-2.3V75.7c0-.8.4-1.5 1-1.9l27.2-18c.7-.5 1.7-.5 2.5 0l30.3 19c.8.5 1.7.2 2.2-.5.5-.8.2-1.7-.5-2.2l-30.3-19c-1.8-1.1-4.2-1.1-5.9.1l-27.2 18c-1.5 1-2.5 2.7-2.5 4.6v36.6c0 3 2.5 5.5 5.5 5.5H450.1c.7 0 1.3-.4 1.5-1.1.2-.6.1-1.4-.4-1.8z"/><path class="st0" d="M202.5 176.2c2.2 0 4.2-.5 6.1-1.6 1.8-1 3.2-2.4 4.2-4.1l2.8 1.1c-1.2 2.2-3 4-5.3 5.3-2.4 1.4-5 2-7.8 2-2 0-3.9-.3-5.7-1-1.8-.7-3.3-1.6-4.7-2.8-1.4-1.2-2.4-2.6-3.2-4.2-.8-1.6-1.1-3.3-1.1-5.1 0-1.8.4-3.5 1.1-5.2.8-1.6 1.8-3 3.2-4.2 1.4-1.2 2.9-2.2 4.7-2.8 1.8-.7 3.7-1 5.7-1 2.8 0 5.4.7 7.8 2 2.3 1.3 4.1 3.1 5.3 5.3l-2.8 1.1c-1-1.7-2.4-3.1-4.2-4.1-1.9-1-3.9-1.6-6.1-1.6-3.2 0-5.9 1-8.2 3.1-2.3 2-3.4 4.5-3.4 7.4s1.1 5.3 3.4 7.4c2.3 2 5.1 3 8.2 3zM273.4 178.5H270l-2.1-4.7h-12l-2.1 4.7h-3.4l11.5-25.5 11.5 25.5zm-6.8-7.5-4.7-10.5-4.7 10.5h9.4zM319.8 179c-2.3 0-4.4-.5-6.3-1.5-2.3-1.2-3.8-2.9-4.5-5.2l3-.8c.5 1.6 1.6 2.8 3.2 3.6 1.4.7 2.9 1 4.7 1h.7c.2 0 .4 0 .7-.1.8-.1 1.5-.3 2.1-.6 1.8-.8 2.8-2.1 3-3.9.1-1-.2-1.8-.9-2.6-1.1-1.2-2.9-1.8-5.3-2-4.1-.2-7.1-1.1-8.9-2.6-1.4-1.1-2.1-2.6-2.1-4.3 0-2.4 1-4.3 3.1-5.7 1.9-1.3 4.2-2 6.9-2 3.2 0 5.8 1 8 3 .7.7 1.3 1.4 1.8 2.1.2.2.4.6.6 1.1l-2.9 1c-.2-.3-.4-.7-.6-1.1s-.6-.8-1.1-1.2c-1.5-1.5-3.4-2.2-5.7-2.2-.7 0-1.4.1-2.1.2-.8.2-1.6.4-2.3.8-1.7.9-2.6 2.2-2.6 3.9 0 2.5 2.7 3.8 8.2 4.2 3.3.2 5.8 1.2 7.4 2.9 1.3 1.3 1.8 2.9 1.7 4.6-.2 2.3-1.3 4.1-3.3 5.4-1.9 1.4-4.1 2-6.5 2zM366.6 178.5V153h3.1v25.5h-3.1zM431.2 179.1 411 159.7v18.9h-3.2v-26l20.3 19.5v-19h3.1v26zM477 177.9c-1.8-.7-3.3-1.6-4.7-2.8-1.4-1.2-2.4-2.6-3.2-4.2s-1.2-3.4-1.2-5.2c0-1.8.4-3.5 1.2-5.1s1.8-3 3.2-4.2 2.9-2.2 4.7-2.8c1.8-.7 3.7-1 5.7-1s3.9.3 5.7 1c1.7.7 3.3 1.6 4.7 2.8 1.4 1.2 2.4 2.6 3.2 4.2s1.2 3.3 1.2 5.1c0 1.8-.4 3.5-1.2 5.2-.7 1.6-1.8 3-3.2 4.2s-2.9 2.2-4.7 2.8c-1.8.7-3.7 1-5.7 1-2 .1-3.9-.3-5.7-1zm-2.5-19.5c-2.3 2-3.4 4.5-3.4 7.4s1.1 5.3 3.4 7.4c2.3 2 5 3.1 8.2 3.1s5.9-1 8.2-3.1c2.3-2 3.4-4.5 3.4-7.4s-1.1-5.3-3.4-7.4c-2.3-2-5-3.1-8.2-3.1s-6 1-8.2 3.1zM308.8.9v2.8h-10v22.7h-3.1V3.7h-10.1V.9h23.2zM354.4.9v25.5h-3.1V15H336v11.4h-3.1V.9h3.1v11.3h15.2V.9h3.2zM397 23.6v2.8h-16.9V.9H397v2.8h-13.8v8.5h11.1V15h-11.1v8.6H397z"/></svg>