<?xml version="1.0" encoding="UTF-8"?>
<svg id="Layer_2" data-name="Layer 2" xmlns="http://www.w3.org/2000/svg" xmlns:xlink="http://www.w3.org/1999/xlink" viewBox="0 0 768.94 187.07">
  <defs>
    <style>
      .cls-1 {
        fill: #161e26;
      }

      .cls-1, .cls-2, .cls-3, .cls-4, .cls-5, .cls-6, .cls-7, .cls-8, .cls-9, .cls-10, .cls-11, .cls-12, .cls-13, .cls-14, .cls-15, .cls-16, .cls-17 {
        stroke-width: 0px;
      }

      .cls-18 {
        fill: url(#linear-gradient-10);
      }

      .cls-18, .cls-19, .cls-20, .cls-21, .cls-22, .cls-23, .cls-24 {
        stroke-width: 2px;
      }

      .cls-18, .cls-19, .cls-20, .cls-21, .cls-22, .cls-23, .cls-24, .cls-25 {
        stroke: #161e26;
        stroke-miterlimit: 10;
      }

      .cls-19 {
        fill: url(#linear-gradient-13);
      }

      .cls-20 {
        fill: url(#linear-gradient-12);
      }

      .cls-21 {
        fill: url(#linear-gradient-11);
      }

      .cls-22 {
        fill: url(#linear-gradient-16);
      }

      .cls-23 {
        fill: url(#linear-gradient-15);
      }

      .cls-24 {
        fill: url(#linear-gradient-14);
      }

      .cls-2 {
        fill: url(#linear-gradient);
      }

      .cls-3 {
        fill: url(#linear-gradient-17);
      }

      .cls-4 {
        fill: url(#linear-gradient-19);
      }

      .cls-5 {
        fill: url(#linear-gradient-18);
      }

      .cls-6 {
        fill: url(#linear-gradient-20);
      }

      .cls-25 {
        fill: url(#linear-gradient-3);
        stroke-width: 2.46px;
      }

      .cls-7 {
        fill: #71a73a;
      }

      .cls-8 {
        fill: #f2ca4a;
      }

      .cls-9 {
        fill: url(#linear-gradient-4);
      }

      .cls-10 {
        fill: url(#linear-gradient-2);
      }

      .cls-11 {
        fill: url(#linear-gradient-8);
      }

      .cls-12 {
        fill: url(#linear-gradient-9);
      }

      .cls-13 {
        fill: url(#linear-gradient-7);
      }

      .cls-14 {
        fill: url(#linear-gradient-5);
      }

      .cls-15 {
        fill: url(#linear-gradient-6);
      }

      .cls-16 {
        fill: #fff;
      }

      .cls-17 {
        fill: #161e26;
      }
    </style>
    <linearGradient id="linear-gradient" x1="543.49" y1="548.97" x2="543.49" y2="520.78" gradientTransform="translate(379.79 -721.18) rotate(148.51) scale(1 -1)" gradientUnits="userSpaceOnUse">
      <stop offset="0" stop-color="#9f0000"/>
      <stop offset="1" stop-color="#ee5e38"/>
    </linearGradient>
    <linearGradient id="linear-gradient-2" x1="539.88" y1="572.41" x2="539.88" y2="548.62" gradientTransform="translate(379.79 -721.18) rotate(148.51) scale(1 -1)" gradientUnits="userSpaceOnUse">
      <stop offset="0" stop-color="#b7dff5"/>
      <stop offset="1" stop-color="#f2fbff"/>
    </linearGradient>
    <linearGradient id="linear-gradient-3" x1="399.06" y1="31.6" x2="410.78" y2="31.6" gradientTransform="translate(564.81 -66.35) rotate(169.3) scale(1 -1)" xlink:href="#linear-gradient-2"/>
    <linearGradient id="linear-gradient-4" x1="360.63" y1="72.26" x2="378.89" y2="72.26" gradientTransform="matrix(1,0,0,1,0,0)" xlink:href="#linear-gradient-2"/>
    <linearGradient id="linear-gradient-5" x1="373.15" y1="44.38" x2="412.94" y2="44.38" gradientTransform="matrix(1,0,0,1,0,0)" xlink:href="#linear-gradient-2"/>
    <linearGradient id="linear-gradient-6" x1="425.95" y1="44.34" x2="472.2" y2="44.34" gradientTransform="matrix(1,0,0,1,0,0)" xlink:href="#linear-gradient-2"/>
    <linearGradient id="linear-gradient-7" x1="493.55" y1="43.01" x2="513.23" y2="43.01" gradientTransform="matrix(1,0,0,1,0,0)" xlink:href="#linear-gradient-2"/>
    <linearGradient id="linear-gradient-8" x1="463.63" y1="90.37" x2="501.58" y2="90.37" gradientTransform="matrix(1,0,0,1,0,0)" xlink:href="#linear-gradient-2"/>
    <linearGradient id="linear-gradient-9" x1="517.4" y1="75.31" x2="549.15" y2="75.31" gradientTransform="matrix(1,0,0,1,0,0)" xlink:href="#linear-gradient-2"/>
    <linearGradient id="linear-gradient-10" x1="568.11" y1="83.12" x2="598.58" y2="83.12" gradientTransform="matrix(1,0,0,1,0,0)" xlink:href="#linear-gradient-2"/>
    <linearGradient id="linear-gradient-11" x1="619.95" y1="71.87" x2="649.35" y2="71.87" gradientTransform="matrix(1,0,0,1,0,0)" xlink:href="#linear-gradient-2"/>
    <linearGradient id="linear-gradient-12" x1="601.05" y1="123.28" x2="622.15" y2="123.28" gradientTransform="matrix(1,0,0,1,0,0)" xlink:href="#linear-gradient-2"/>
    <linearGradient id="linear-gradient-13" x1="665.95" y1="41.2" x2="694.53" y2="41.2" gradientTransform="matrix(1,0,0,1,0,0)" xlink:href="#linear-gradient-2"/>
    <linearGradient id="linear-gradient-14" x1="659.63" y1="83.96" x2="684.87" y2="83.96" gradientTransform="matrix(1,0,0,1,0,0)" xlink:href="#linear-gradient-2"/>
    <linearGradient id="linear-gradient-15" x1="719.23" y1="43.92" x2="749.94" y2="43.92" gradientTransform="matrix(1,0,0,1,0,0)" xlink:href="#linear-gradient-2"/>
    <linearGradient id="linear-gradient-16" x1="752.1" y1="69.25" x2="767.94" y2="69.25" gradientTransform="matrix(1,0,0,1,0,0)" xlink:href="#linear-gradient-2"/>
    <linearGradient id="linear-gradient-17" x1="301.25" y1="119.16" x2="323.11" y2="119.16" gradientTransform="matrix(1,0,0,1,0,0)" xlink:href="#linear-gradient-2"/>
    <linearGradient id="linear-gradient-18" x1="271.93" y1="78.59" x2="318.26" y2="78.59" gradientTransform="matrix(1,0,0,1,0,0)" xlink:href="#linear-gradient-2"/>
    <linearGradient id="linear-gradient-19" x1="335.22" y1="71.7" x2="357.39" y2="71.7" gradientTransform="matrix(1,0,0,1,0,0)" xlink:href="#linear-gradient-2"/>
    <linearGradient id="linear-gradient-20" x1="223.02" y1="87.13" x2="254.64" y2="87.13" gradientTransform="matrix(1,0,0,1,0,0)" xlink:href="#linear-gradient-2"/>
  </defs>
  <g id="Layer_1-2" data-name="Layer 1">
    <g>
      <g>
        <path class="cls-16" d="M96.62,43.79c-3.28.17-6.51.64-9.69,1.44-.73.19-1.34.59-1.77,1.12-.68.81-.98,1.93-.7,3.01.47,1.83,2.31,2.94,4.15,2.47,19.24-4.85,41.38,4.01,55.09,22.04,13.7,18.02,16.31,41.72,6.51,58.98-.93,1.63-.37,3.71,1.27,4.64.53.3,1.1.45,1.68.45,1.2,0,2.35-.62,2.97-1.72,11.15-19.6,8.34-46.32-7.01-66.48-13.11-17.24-33.27-26.95-52.5-25.95Z"/>
        <path class="cls-16" d="M88.8,98.54c-8.45-6.1-18.9-8.37-29.45-6.37-2.35.45-4.63,1.1-6.83,1.94-1.44,3.76-3.15,7.39-5.2,10.84-.08.14-.17.28-.26.42.11-.02.22-.02.33-.02,1.46-.08,2.9.75,3.53,2.22l7.04,16.87c.67,1.6-.59,3.34-2.33,3.22h-.08l-4.4-.34-4.19-.33-9.57-.75c-2.41-.19-3.98-2.64-3.11-4.89.19-.51.4-1.01.62-1.51-.05.05-.09.08-.14.12-2.73,2.33-5.75,4.43-8.96,6.17-.81,4.26-.95,8.62-.39,12.97,1.4,10.62,6.82,19.85,15.27,25.97,7.6,5.5,16.82,7.89,26.25,6.85,1.07-.11,2.14-.26,3.2-.48,5.23-.99,10.19-3,14.62-5.86,1.2-.76,2.36-1.6,3.48-2.5,1.1-.87,2.18-1.82,3.18-2.81,1.77-1.72,3.4-3.6,4.88-5.65,6.42-8.85,9.18-19.54,7.8-30.1-1.38-10.64-6.8-19.87-15.27-25.99ZM56.92,104.13c-.87-2.08.36-4.43,2.56-4.94,1.26-.28,2.52-.5,3.79-.64,4.85-.53,9.77.03,14.37,1.74,2.24.84,3.06,3.59,1.66,5.53l-11.31,15.64c-1.07,1.48-3.34,1.21-4.04-.47l-7.04-16.87ZM38.85,153.96c-3.56-4.43-5.84-9.82-6.62-15.75-.06-.39-.09-.79-.14-1.18-.22-2.25,1.65-4.15,3.9-3.98l15,1.15,3.22.25c.64.05,1.18.34,1.57.76.68.78.82,1.97.14,2.92l-1.16,1.6-10.16,14.04c-1.4,1.94-4.26,2.03-5.75.19ZM71.55,157.08l1.01,2.41c.87,2.1-.36,4.44-2.55,4.94-1.26.3-2.52.51-3.79.64-4.86.54-9.77-.02-14.37-1.74-2.25-.84-3.08-3.59-1.66-5.51l9.02-12.49,2.11-2.9.17-.25c.92-1.27,2.72-1.26,3.65-.16.15.19.28.39.37.62l3.04,7.3,2.98,7.14ZM95.22,142.28c-1.12,2.9-2.62,5.7-4.52,8.33-1.77,2.42-3.76,4.58-5.95,6.43-.17.16-.36.3-.54.45-1.88,1.52-4.69.79-5.62-1.43l-1.71-4.09-5.33-12.78c-.67-1.62.59-3.35,2.31-3.22l18.23,1.4c2.42.19,3.99,2.64,3.12,4.91ZM93.5,130.59l-18.24-1.41c-1.8-.14-2.77-2.21-1.69-3.67l11.31-15.66c1.4-1.93,4.26-2.02,5.75-.17,3.56,4.41,5.86,9.8,6.63,15.73.05.4.09.79.12,1.2.22,2.25-1.63,4.15-3.88,3.98Z"/>
      </g>
      <g>
        <path class="cls-8" d="M168.45,110.95c0-28.36-18.51-56.35-45.45-67.63-5.14-2.17-10.58-3.7-16.09-4.47-2.44-.36-4.88-.56-7.33-.61-4.72-.09-9.44.39-14.03,1.51-1.04.26-2.08.17-3-.2-2.24-.93-4.44-1.49-6.59-1.71-4.41-.45-8.56.51-11.98,2.56-1.37.82-2.62,1.8-3.73,2.95,0,.23,0,.48-.02.71-.02,1.24-.09,2.47-.11,3.54-.3,9.6-1.01,19.63-2.87,29.39,6.6-1.34,13.64-1.48,20.91-.12,40.32,7.89,54.35,55.26,31.05,87.12-.2.3-.42.57-.64.85.85.11,1.72.19,2.59.25,6.45.44,12.94-.11,19.03-1.93,1.03-.25,2.05-.16,2.97.22,3.43,1.38,7.11,2.02,10.65,1.71,9.07-.57,16.23-8.26,16.96-17.21.31-2.3-.03-4.69.05-7.01,5.23-9.52,7.61-19.74,7.61-29.93ZM156.12,136.22c-.62,1.1-1.77,1.72-2.97,1.72-.57,0-1.15-.16-1.68-.45-1.65-.93-2.21-3.01-1.27-4.64,9.8-17.26,7.19-40.96-6.51-58.98-13.72-18.03-35.85-26.89-55.09-22.04-1.83.47-3.68-.64-4.15-2.47-.28-1.09.02-2.21.7-3.01.43-.53,1.04-.93,1.77-1.12,3.18-.81,6.42-1.27,9.69-1.44,19.23-.99,39.39,8.71,52.5,25.95,15.35,20.16,18.16,46.88,7.01,66.48Z"/>
        <path class="cls-8" d="M58.41,86.43c-1.21.23-2.41.5-3.57.82-.68,2.33-1.44,4.63-2.31,6.87,2.21-.84,4.49-1.49,6.83-1.94,10.55-2,21,.26,29.45,6.37,8.47,6.12,13.89,15.35,15.27,25.99,1.38,10.56-1.38,21.25-7.8,30.1-1.48,2.05-3.11,3.93-4.88,5.65-1.01.99-2.08,1.94-3.18,2.81-1.12.9-2.28,1.74-3.48,2.5-4.43,2.86-9.38,4.86-14.62,5.86-1.06.22-2.13.37-3.2.48-9.43,1.04-18.65-1.35-26.25-6.85-8.45-6.12-13.87-15.35-15.27-25.97-.56-4.35-.42-8.71.39-12.97-2.24,1.2-4.57,2.24-6.97,3.06-1.97,15.21,3.15,31.16,17.52,41.89,16.79,11.99,38.07,8.73,53.23-3.18,1.15-.9,2.25-1.85,3.32-2.84,1.06-.98,2.07-2,3.03-3.08,1.38-1.52,2.69-3.12,3.88-4.81,23.59-32.43-.15-78.13-41.39-70.75Z"/>
        <path class="cls-8" d="M97.38,126.61c-.03-.4-.08-.79-.12-1.2-.78-5.93-3.08-11.32-6.63-15.73-1.49-1.85-4.35-1.75-5.75.17l-11.31,15.66c-1.07,1.46-.11,3.53,1.69,3.67l18.24,1.41c2.25.17,4.1-1.72,3.88-3.98Z"/>
        <path class="cls-8" d="M78.58,156.06c.93,2.22,3.74,2.95,5.62,1.43.19-.16.37-.3.54-.45,2.19-1.85,4.18-4.01,5.95-6.43,1.9-2.62,3.4-5.42,4.52-8.33.87-2.27-.7-4.72-3.12-4.91l-18.23-1.4c-1.72-.14-2.98,1.6-2.31,3.22l5.33,12.78,1.71,4.09Z"/>
        <path class="cls-8" d="M77.64,100.3c-4.6-1.71-9.52-2.27-14.37-1.74-1.27.14-2.53.36-3.79.64-2.21.51-3.43,2.86-2.56,4.94l7.04,16.87c.7,1.68,2.97,1.94,4.04.47l11.31-15.64c1.4-1.94.57-4.69-1.66-5.53Z"/>
        <path class="cls-8" d="M68.57,149.94l-3.04-7.3c-.09-.23-.22-.43-.37-.62-.93-1.1-2.73-1.12-3.65.16l-.17.25-2.11,2.9-9.02,12.49c-1.41,1.93-.59,4.68,1.66,5.51,4.6,1.72,9.51,2.28,14.37,1.74,1.27-.12,2.53-.34,3.79-.64,2.19-.5,3.42-2.84,2.55-4.94l-1.01-2.41-2.98-7.14Z"/>
        <path class="cls-8" d="M38.85,153.96c1.49,1.85,4.35,1.76,5.75-.19l10.16-14.04,1.16-1.6c.68-.95.54-2.14-.14-2.92-.39-.42-.93-.71-1.57-.76l-3.22-.25-15-1.15c-2.25-.17-4.12,1.72-3.9,3.98.05.39.08.79.14,1.18.78,5.93,3.06,11.32,6.62,15.75Z"/>
        <path class="cls-8" d="M37.38,126.25l9.57.75,4.19.33,4.4.34h.08c1.74.12,3-1.62,2.33-3.22l-7.04-16.87c-.62-1.48-2.07-2.3-3.53-2.22-.11,0-.22,0-.33.02-.82,1.4-1.72,2.76-2.69,4.1-.9,1.27-1.86,2.53-2.9,3.74-1.97,2.35-4.15,4.57-6.57,6.63-.22.5-.43.99-.62,1.51-.87,2.25.7,4.71,3.11,4.89Z"/>
      </g>
      <g>
        <path class="cls-7" d="M87.05,20.99c-5.22,1.38-10.02,3.93-14.4,7.1,3.88-.17,7.95.43,12.05,1.93,6.8-1.55,13.82-1.93,20.7-1.29.87.08,1.74.19,2.59.3,3-2.14,5.75-4.63,8.2-7.39-9.49-2.92-19.66-3.34-29.15-.64Z"/>
        <path class="cls-7" d="M51.19,46.06c-1.58.59-3.12,1.2-4.6,1.82C10.26,63.16,8.33,88.24,10.54,124.7c.39-.05.78-.11,1.15-.2,1.41-.23,2.78-.57,4.13-1.01,1.57-.47,3.09-1.06,4.57-1.74,2.98-1.37,5.79-3.09,8.4-5.14,4.1-3.17,7.72-7.05,10.75-11.34,1.13-1.63,2.21-3.32,3.17-5.06.25-.42.47-.85.7-1.27.87-1.65,1.65-3.34,2.35-5.03.19-.42.36-.85.51-1.29.37-.87.7-1.75,1.01-2.64.68-1.86,1.29-3.76,1.82-5.67.5-1.79.95-3.6,1.35-5.44.85-3.9,1.48-7.88,1.96-11.87.78-6.54,1.15-13.12,1.38-19.6l.08-2.31c-.34.11-.68.23-1.02.36-.56.19-1.12.39-1.65.62Z"/>
      </g>
      <g>
        <path class="cls-1" d="M766,70.12c0-1.13-.84-1.99-1.97-1.99l-8.78-.14c-.99,0-1.85-.85-1.85-1.99v-.14l1.43-26.47c0-1.13-.85-1.99-1.85-1.99l-28.6-.28c-1.13,0-1.97.85-1.97,1.99l-.57,26.33c0,1.13-.84,1.97-1.97,1.97l-10.48-.14c-.98,0-1.83.85-1.83,1.85v.14l1.27,23.21c.14.99.99,1.99,2.13,1.99h8.48c.99.14,1.99.99,1.99,1.99v.14l-1.13,50.11v.14c0,.98.85,1.97,1.83,1.97l24.77,1.57h.14c.99,0,1.85-.71,1.99-1.85l2.97-51.66c0-1.13.99-1.99,2.13-1.99l10.19.14c.99,0,1.85-.84,1.85-1.97l-.16-22.93Z"/>
        <path class="cls-1" d="M694.1,75.77l-29.57-.42c-1.13,0-1.99.84-1.99,1.97l1.85,69.51c.14,1.13.98,2.11,2.25,2.11l25.63.71h.14c.99,0,1.97-.85,1.97-1.99l1.85-69.77c0-1.13-.99-2.13-2.13-2.13Z"/>
        <path class="cls-1" d="M682.64,35.02c-8.92,0-16.14,7.64-16.14,16.98s7.22,17.13,16.14,17.13,16.28-7.64,16.28-17.13-7.22-16.98-16.28-16.98Z"/>
        <path class="cls-1" d="M650.66,65.58c-.14,0-.14.14-.14.14l-27.74,1.41c-1.27,0-2.27,1.13-2.41,2.55v42.88c-.14,9.91-3.68,13.73-9.63,13.73s-9.63-5.23-9.63-19.66c0-10.19,1.85-27.18,2.84-32.7v-.3c0-.84-.71-1.27-1.43-1.27l-29.15-2.25h-.14c-.71,0-1.41.42-1.55,1.12-.85,4.26-2.41,13.59-2.41,25.91,0,31.7,9.2,51.96,38.07,51.96,4.82,0,9.21-1.29,12.89-3.12v3.4c0,1.27,1.12,2.41,2.39,2.41l24.91.84h.14c1.27,0,2.27-1.13,2.41-2.41l2.69-82.37c0-1.27-.98-2.27-2.11-2.27Z"/>
        <path class="cls-1" d="M560.63,65.44c-1.13-.14-2.41-.28-3.96-.28-6.37,0-15.72,2.25-20.67,9.2-.14.28-.28.42-.28.42-.14,0-.14-.28-.14-.56v-3.4c0-1.55-.42-1.97-2.27-1.97l-24.34-1.13h-.14c-1.13,0-1.99.84-1.99,1.97v.14l2.55,76.87c0,1.27.99,2.11,2.13,2.11h.14l24.06-.56c1.27,0,2.27-.99,2.27-2.27,0-14.43-.14-25.61-.14-25.61-.14-17.41,6.23-27.04,21.37-27.46.85-.14,1.41-.57,1.41-1.27.14-3.4,1.13-21.95,1.13-24.91v-.14c0-.71-.71-.99-1.13-1.13Z"/>
        <path class="cls-1" d="M505.57,37.7l-72.75-1.27h-.14c-1.69,0-2.97,1.41-2.97,3.11l-1.55,107.16v.14c0,1.41.98,2.69,2.55,2.69h.28l23.07-1.99c1.55-.14,2.83-1.55,2.98-3.11l1.27-28.59c0-1.55,1.13-4.4,2.83-4.4l32.42-.56c1.55,0,2.97-1.69,3.11-3.4l.44-18.39v-.14c0-1.57-1.27-2.84-2.84-2.84-13.59,0-17.41,1.41-30.99,1.41-1.43,0-2.41-.84-2.41-2.25,0-2.7,1.69-14.31,2.25-17.27.43-1.55,1.99-2.98,3.68-3.12l35.68-2.11c1.69,0,3.11-1.57,3.4-3.12.56-4.82,2.55-15,2.55-19.24,0-1.55-1.27-2.69-2.84-2.69Z"/>
        <path class="cls-1" d="M418.11,68.13l-8.78-.14c-.99,0-1.85-.85-1.85-1.99v-.14l1.41-26.47c0-1.13-.84-1.99-1.83-1.99l-28.6-.28c-1.13,0-1.99.85-1.99,1.99l-.56,26.33c0,1.13-.85,1.97-1.99,1.97l-10.47-.14c-.99,0-1.83.85-1.83,1.85v.14l1.27,23.21c.14.99.98,1.99,2.11,1.99h8.5c.99.14,1.99.99,1.99,1.99v.14l-1.13,50.11v.14c0,.98.84,1.97,1.83,1.97l24.77,1.57h.14c.99,0,1.85-.71,1.99-1.85l2.97-51.66c0-1.13.99-1.99,2.13-1.99l10.19.14c.99,0,1.83-.84,1.83-1.97l-.14-22.93c0-1.13-.84-1.99-1.97-1.99Z"/>
        <path class="cls-1" d="M352.14,66l-26.61.43c-1.27.14-2.27,1.12-2.27,2.41l.14,3.67c-4.95-2.97-10.9-5.09-17.41-5.09-18.82,0-35.66,15.58-35.66,39.08,0,24.9,14.01,40.62,35.24,40.62,7.78,0,13.45-2.69,17.83-6.94l.14,7.64c.14,1.13.99,2.13,2.27,2.13h.14l23.22-1.13c1.27-.14,2.41-1.27,2.41-2.55l2.83-77.99c0-1.27-.99-2.27-2.27-2.27ZM323.41,109.32c-1.27,7.22-6.09,11.18-10.47,11.18-6.09,0-11.32-4.81-11.32-12.6s4.68-13.45,11.46-13.45c5.37,0,9.2,3.68,10.33,8.2v6.66Z"/>
        <path class="cls-1" d="M233.38,64.87l35.68-2.11c1.69,0,3.11-1.57,3.4-3.12.56-4.82,2.55-15,2.55-19.24,0-1.55-1.27-2.69-2.84-2.69l-72.75-1.27h-.14c-1.69,0-2.97,1.41-2.97,3.11l-1.55,107.16v.14c0,1.41.98,2.69,2.55,2.69h.28l23.07-1.99c1.57-.14,2.84-1.55,2.98-3.11l1.27-28.59c0-1.55,1.13-4.4,2.83-4.4l32.42-.56c1.55,0,2.97-1.69,3.11-3.4l.44-18.39v-.14c0-1.57-1.27-2.84-2.84-2.84-13.57,0-17.41,1.41-30.99,1.41-1.41,0-2.41-.84-2.41-2.25,0-2.7,1.69-14.31,2.27-17.27.42-1.55,1.97-2.98,3.67-3.12Z"/>
        <path class="cls-1" d="M172.42,80.56c-9.74-23.83-30.49-43.18-55.39-49.73,2.69-2.7,5.08-5.7,7.1-8.95.96-1.54.48-3.57-1.07-4.54-11.15-7.42-25.69-9.26-38.61-5.67-9.47,2.62-17.72,8.14-24.79,14.83-1.9,1.76-4.01,4.13-5.11,6.69-3.43-2.55-7.22-4.64-11.17-6.2-1.63-.65-3.48.16-4.13,1.79-.65,1.63.16,3.48,1.79,4.13,3.34,1.32,6.55,3.09,9.47,5.22-.48.08-.95.17-1.41.25-7.56,1.4-14.8,3.87-21.64,7.63C-3.52,63.19-3.47,98.36,4.42,128.63c.25,1.58,1.62,2.84,3.31,2.75,1.07-.05,2.13-.16,3.18-.3-.59,9.99,1.52,20.3,7.01,30.02,17.89,30.69,59.68,33.92,84.18,11,9.23,2.21,18.95,2.62,28.78.78,17.99,6.73,37.59-4.16,39.53-23.94.23-1.82.2-3.87.14-5.68-.03-.16-.11-.28-.23-.43.43-.73.84-1.46,1.23-2.21,6.29-11.94,7.86-26.2,6.26-39.45-.85-7.1-2.7-14.03-5.39-20.61ZM160.84,140.88c-.08,2.31.26,4.71-.05,7.01-.73,8.95-7.89,16.64-16.96,17.21-3.54.31-7.22-.33-10.65-1.71-.92-.37-1.94-.47-2.97-.22-6.09,1.82-12.58,2.36-19.03,1.93-.87-.06-1.74-.14-2.59-.25.22-.28.44-.56.64-.85,23.3-31.86,9.27-79.23-31.05-87.12-7.27-1.35-14.31-1.21-20.91.12,1.86-9.75,2.58-19.79,2.87-29.39.02-1.07.09-2.3.11-3.54.02-.23.02-.48.02-.71,1.1-1.15,2.36-2.13,3.73-2.95,3.42-2.05,7.56-3.01,11.98-2.56,2.14.22,4.35.78,6.59,1.71.92.37,1.96.47,3,.2,4.58-1.12,9.3-1.6,14.03-1.51,2.45.05,4.89.25,7.33.61,5.51.78,10.95,2.3,16.09,4.47,26.93,11.28,45.45,39.27,45.45,67.63,0,10.19-2.38,20.41-7.61,29.93ZM89.57,167.91c-15.16,11.91-36.44,15.18-53.23,3.18-14.37-10.73-19.49-26.68-17.52-41.89,2.41-.82,4.74-1.86,6.97-3.06,3.21-1.74,6.23-3.84,8.96-6.17.05-.05.09-.08.14-.12,2.42-2.07,4.6-4.29,6.57-6.63,1.04-1.21,2-2.47,2.9-3.74.96-1.34,1.86-2.7,2.69-4.1.09-.14.19-.28.26-.42,2.05-3.45,3.76-7.08,5.2-10.84.87-2.24,1.63-4.54,2.31-6.87,1.16-.33,2.36-.59,3.57-.82,41.24-7.38,64.99,38.32,41.39,70.75-1.2,1.69-2.5,3.29-3.88,4.81-.96,1.07-1.97,2.1-3.03,3.08-1.07.99-2.17,1.94-3.32,2.84ZM10.54,124.7c-2.21-36.45-.28-61.54,36.05-76.82,1.48-.62,3.01-1.23,4.6-1.82.53-.23,1.09-.43,1.65-.62.34-.12.68-.25,1.02-.36l-.08,2.31c-.23,6.48-.61,13.06-1.38,19.6-.48,3.99-1.1,7.97-1.96,11.87-.4,1.83-.85,3.65-1.35,5.44-.53,1.91-1.13,3.81-1.82,5.67-.31.89-.64,1.77-1.01,2.64-.16.43-.33.87-.51,1.29-.7,1.69-1.48,3.39-2.35,5.03-.23.42-.45.85-.7,1.27-.96,1.74-2.03,3.43-3.17,5.06-3.03,4.29-6.65,8.17-10.75,11.34-2.61,2.05-5.42,3.77-8.4,5.14-1.48.68-3,1.27-4.57,1.74-1.35.43-2.72.78-4.13,1.01-.37.09-.76.16-1.15.2ZM116.2,21.63c-2.45,2.76-5.2,5.25-8.2,7.39-.85-.11-1.72-.22-2.59-.3-6.88-.64-13.9-.26-20.7,1.29-4.1-1.49-8.17-2.1-12.05-1.93,4.38-3.17,9.18-5.72,14.4-7.1,9.49-2.7,19.66-2.28,29.15.64Z"/>
      </g>
    </g>
    <g>
      <path class="cls-2" d="M173.24,34.96l.02.03c.34.02.61.09.93.17.76-.65,1.87-2.44,3.57-4.4,2.12-2.4,5.01-4.03,7.43,3.33l.08.13c.74,2.03,1.61,4.36,2.19,5.75l36.85-22.57c.7-.43,1.52-.75,2.3-.99-1.72-2.59-6.06-8.54-11.54-11.17-7.07-3.41-14.15-3.31-18.82-1.69-4.71,1.64-9.11,2.95-14.74,8.57-6.54,6.54-8.98,17.76-8.53,21.58.09.59.16,1.01.27,1.26Z"/>
      <path class="cls-17" d="M228.9,16.12c2.96,0,5.85,1.51,7.52,4.24l5.67,9.25c1.18,1.93.57,4.46-1.35,5.64l-44.69,27.37c-.67.41-1.41.6-2.14.6-1.38,0-2.73-.7-3.5-1.96l-5.67-9.25c-2.51-4.1-1.27-9.46,2.71-12.02l36.85-22.57c.72-.44,1.52-.77,2.29-.99.76-.21,1.54-.31,2.31-.31M228.9,13.66c-1,0-1.99.13-2.96.4-1.1.32-2.07.74-2.92,1.26l-36.85,22.57h-.02s-.02.03-.02.03c-5.1,3.28-6.65,10.17-3.47,15.37l5.67,9.25c1.2,1.96,3.29,3.13,5.6,3.13,1.21,0,2.39-.33,3.42-.96l44.69-27.37c3.08-1.89,4.05-5.93,2.17-9.01l-5.67-9.25c-2.08-3.39-5.67-5.41-9.61-5.41h0Z"/>
      <path class="cls-17" d="M203.19,2.46c3.64,0,7.76.8,11.87,2.78,5.48,2.63,9.82,8.59,11.54,11.17-.77.24-1.59.56-2.3.99l-36.85,22.57c-.58-1.4-1.45-3.72-2.19-5.75l-.08-.13c-1.32-4.01-2.78-5.35-4.17-5.35-1.17,0-2.29.93-3.25,2.03-1.7,1.96-2.82,3.75-3.57,4.4-.32-.08-.59-.14-.93-.17l-.02-.03c-.11-.26-.18-.67-.27-1.26-.45-3.82,1.99-15.04,8.53-21.58,5.64-5.62,10.04-6.93,14.74-8.57,1.95-.68,4.33-1.09,6.95-1.09M203.19,0c-2.76,0-5.44.42-7.75,1.22l-.75.26c-4.52,1.56-9.19,3.18-14.92,8.89-7.06,7.06-9.76,19.12-9.23,23.61v.03s0,.03,0,.03c.11.73.21,1.34.44,1.88l.07.17.09.15.66,1.07,1.28.12c.13,0,.25.04.53.1l1.22.29.95-.81c.6-.51,1.17-1.26,1.89-2.22.56-.74,1.19-1.57,1.94-2.44.75-.85,1.2-1.09,1.36-1.16.21.16.98.88,1.88,3.64l.09.27.1.17c.47,1.29,1.46,3.97,2.14,5.62l1.1,2.66,2.45-1.5,36.85-22.57c.43-.26,1.02-.51,1.75-.74l3.12-.98-1.81-2.72c-2.2-3.3-6.75-9.25-12.52-12.03-4.09-1.98-8.57-3.02-12.94-3.02h0Z"/>
      <path class="cls-10" d="M184.74,52.01l5.67,9.25c1.18,1.93,3.71,2.54,5.64,1.35l44.69-27.37c1.93-1.18,2.54-3.71,1.35-5.64l-5.67-9.25c-2.1-3.44-6.14-4.94-9.82-3.93-.77.23-1.57.55-2.29.99l-36.85,22.57c-3.98,2.56-5.22,7.92-2.71,12.02Z"/>
      <circle class="cls-25" cx="172.8" cy="39.89" r="5.86"/>
    </g>
    <g>
      <path class="cls-9" d="M363.4,80.02c-1.96,0-2.17-2.39-2.25-3.29-.15-1.78-.24-3.58-.32-5.33-.05-1.12-.11-2.24-.18-3.36-.03-.52-.08-1.32.31-2.03.34-.61,1.09-1.33,2.73-1.33.39,0,.8.04,1.31.11,1.72.27,3.26.4,4.71.4s2.78-.13,4.03-.39l.1-.02c.6-.12,1.27-.26,1.94-.26.86,0,1.58.24,2.14.71.65.55,1,1.36.97,2.28-.04,1.11-.61,2.21-1.5,2.86-1.25.91-2.8,1.02-3.86,1.02-.25,0-.5,0-.75-.02h-.31c-.38-.03-.76-.04-1.15-.04-.95,0-1.62.11-2.17.37-1.11.51-1.85,1.81-1.72,3.03l.21,1.96-1.71-.98c-.07.01-.32.21-.36.43-.1.58.31,1.48.44,1.78l.35.77-.71.47c-.91.6-1.63.88-2.27.88Z"/>
      <path class="cls-17" d="M375.79,65.51c.55,0,1.07.12,1.49.47,1.06.89.64,2.75-.48,3.57-.92.68-2.11.82-3.27.82-.24,0-.48,0-.71-.02-.49-.02-.99-.05-1.49-.05-.9,0-1.78.09-2.59.46-1.5.69-2.47,2.4-2.3,4.05-.15-.09-.31-.12-.47-.12-.62,0-1.25.58-1.37,1.24-.14.78.2,1.69.51,2.37-.74.49-1.29.72-1.71.72-.84,0-1.12-.9-1.25-2.38-.25-2.88-.32-5.78-.5-8.67-.03-.5-.06-1.04.19-1.48.36-.64,1.09-.82,1.86-.82.39,0,.79.05,1.16.1,1.61.25,3.24.41,4.86.41,1.42,0,2.84-.12,4.23-.41.59-.12,1.24-.26,1.84-.26M375.79,63.51c-.78,0-1.51.15-2.15.28l-.1.02c-1.18.24-2.46.37-3.82.37s-2.89-.13-4.56-.38c-.56-.09-1.02-.13-1.46-.13-2.13,0-3.13,1-3.6,1.85-.54.97-.48,1.98-.44,2.58.07,1.11.12,2.23.18,3.34.09,1.76.17,3.58.33,5.37.24,2.79,1.33,4.21,3.24,4.21.84,0,1.74-.33,2.82-1.05l1.42-.94-.7-1.55s-.03-.06-.04-.09l1.96,1.13-.42-3.92c-.09-.8.42-1.68,1.14-2.01.41-.19.95-.27,1.75-.27.37,0,.73.02,1.1.03h.31c.26.02.53.03.79.03,1.2,0,2.97-.13,4.45-1.21,1.13-.83,1.86-2.22,1.91-3.63.04-1.22-.44-2.34-1.32-3.08-.74-.62-1.68-.94-2.78-.94h0Z"/>
    </g>
    <g>
      <path class="cls-14" d="M407.58,54.7c-1.25-1.41-1.45-3.28-1.63-4.93-.05-.49-.1-.97-.18-1.44-.25-1.5-1.28-3.1-2.41-3.1-.1,0-.19.01-.29.03-.31.07-.66.28-1.02.49-.62.37-1.32.78-2.21.78-1.24,0-2.17-.78-2.99-1.46-.5-.41-1.06-.88-1.41-.88-.04,0-.09,0-.18.04-.19.08-.38.34-.59.61-.24.31-.5.65-.88.94-.51.39-1.12.59-1.77.59-1.69,0-3.25-1.35-4.07-2.5l-.37-.53c-.81-1.16-1.64-2.37-2.72-2.46-.04,0-.09,0-.13,0-1.08,0-2.03,1.16-2.46,2.24-.09.23-.2.62-.34,1.1-.77,2.64-1.82,6.26-4.16,6.26-.78,0-1.52-.42-2.22-1.26-.93-1.12-1.07-3.01-1.2-4.67-.04-.52-.07-1-.14-1.39l-.95-5.98c-.12-.74-.36-2.28.66-3.3.82-.81,1.98-.82,2.68-.82l9.15-.05c1.57,0,3.13-.02,4.7-.02,4.86,0,10.59.07,16.22.61,2,.19,4.02.59,5.24,2.18.98,1.29,1.07,2.93,1.03,4.36-.14,4.97-1.43,9.93-3.72,14.34l-.67,1.29-.97-1.09Z"/>
      <path class="cls-17" d="M390.43,33.99c5.39,0,10.78.09,16.15.61,1.67.16,3.52.46,4.54,1.8.79,1.03.86,2.43.82,3.73-.14,4.83-1.38,9.62-3.6,13.91-1.37-1.54-1.24-3.84-1.58-5.87-.31-1.85-1.64-3.93-3.39-3.93-.17,0-.34.02-.52.06-1.07.24-1.91,1.24-3.01,1.24h0c-1.68,0-2.93-2.34-4.39-2.34-.19,0-.39.04-.59.13-.73.32-1.04,1.19-1.67,1.67-.36.27-.75.39-1.16.39-1.2,0-2.5-1.01-3.26-2.08-1.02-1.44-2.06-3.25-3.82-3.4-.07,0-.15,0-.22,0-1.54,0-2.81,1.41-3.39,2.87-.48,1.23-1.57,6.72-3.57,6.72-.44,0-.92-.27-1.45-.9-1-1.2-.87-4.07-1.11-5.58-.32-1.99-.64-3.99-.95-5.98-.13-.84-.23-1.83.38-2.43.5-.5,1.28-.53,1.98-.53,3.05-.02,6.1-.03,9.14-.05,1.56,0,3.11-.02,4.67-.02M390.43,31.99h0c-1.56,0-3.12,0-4.68.02l-4.98.03-4.17.02c-.79,0-2.27.01-3.38,1.11-1.39,1.38-1.08,3.33-.95,4.17l.48,2.99.48,2.99c.05.33.09.8.13,1.31.14,1.81.29,3.87,1.43,5.24.9,1.08,1.9,1.62,2.99,1.62,3.09,0,4.31-4.2,5.12-6.98.12-.42.25-.85.31-1.01.35-.88,1.03-1.6,1.53-1.6.67.06,1.39,1.11,2.04,2.04.13.18.25.36.38.54,1.01,1.41,2.82,2.92,4.89,2.92.87,0,1.68-.28,2.37-.8.48-.37.81-.79,1.07-1.13.03-.04.07-.08.1-.13.2.14.46.35.65.51.86.71,2.03,1.68,3.62,1.69,1.18,0,2.07-.53,2.73-.92.27-.16.58-.34.74-.38.03,0,.05,0,.07,0,.36,0,1.2.96,1.42,2.26.07.43.12.89.18,1.38.2,1.8.42,3.84,1.88,5.48l1.93,2.18,1.34-2.58c2.36-4.55,3.68-9.66,3.83-14.78.05-1.61-.06-3.47-1.23-5-1.65-2.16-4.54-2.44-5.94-2.57-5.68-.54-11.45-.62-16.34-.62h0Z"/>
    </g>
    <g>
      <path class="cls-15" d="M430.84,56.84c-.28,0-.56-.05-.83-.14-2.13-.72-2.24-3.59-2.3-5.5-.01-.39-.03-.75-.06-1.02l-1.65-14.85c-.07-.66-.22-2.02.76-2.88.71-.61,1.64-.61,2.14-.61h15.56c2.42,0,5.15,0,7.69.84.41.14.82.29,1.22.45.98.38,1.9.74,2.81.74.66,0,1.31-.19,2-.38.77-.21,1.56-.43,2.44-.45h.16c.6-.01,1.26-.03,1.96-.03,3.08,0,6.84.22,8.53,1.92.61.61.93,1.38.93,2.24v.78s-.75.19-.75.19c-1.5.38-3.06,1.35-4.72,2.37-2.44,1.51-4.96,3.06-7.76,3.06h0c-.48,0-.97-.05-1.43-.14-.48-.1-.93-.25-1.36-.39-.59-.2-1.14-.39-1.65-.39-1.02.04-1.92.73-2.87,1.46-1.12.86-2.38,1.83-3.97,1.83-.11,0-.22,0-.33-.01-1.13-.09-2.05-.68-2.86-1.21-.52-.33-1.01-.65-1.51-.82-.27-.09-.56-.13-.86-.13-1.63,0-3.21,1.34-4.05,2.67-.68,1.08-1.13,2.28-1.62,3.55-.38,1-.77,2.03-1.29,3.02-.75,1.43-2.3,3.83-4.34,3.83Z"/>
      <path class="cls-17" d="M428.93,32.84h.01c5.18,0,10.35,0,15.53,0,2.48,0,5.02,0,7.38.79,1.44.47,2.83,1.24,4.34,1.24.02,0,.03,0,.05,0,1.5-.02,2.9-.8,4.4-.82.63-.01,1.35-.03,2.11-.03,3.76,0,8.46.35,8.46,3.15-3.91.99-7.89,5.4-12.23,5.4-.41,0-.82-.04-1.24-.12-1.08-.22-2.11-.8-3.21-.8-.04,0-.07,0-.11,0-2.54.09-4.24,3.29-6.72,3.29-.08,0-.16,0-.24-.01-1.54-.13-2.67-1.5-4.14-1.98-.39-.13-.78-.19-1.17-.19-1.93,0-3.82,1.43-4.89,3.14-1.29,2.05-1.82,4.49-2.94,6.64-.58,1.12-1.93,3.29-3.45,3.29-.17,0-.34-.03-.51-.08-1.84-.62-1.52-4.19-1.68-5.68-.55-4.95-1.1-9.9-1.65-14.85-.08-.71-.11-1.55.43-2.02.4-.35.98-.37,1.51-.37M428.94,30.84h-.01c-.59,0-1.83,0-2.82.86-1.38,1.2-1.18,3.05-1.1,3.75l1.63,14.69.02.16c.02.22.04.57.05.95.07,2.05.2,5.47,2.98,6.41.37.12.76.19,1.15.19,2.44,0,4.19-2.37,5.23-4.37.54-1.04.94-2.1,1.33-3.13.47-1.22.9-2.38,1.53-3.37.82-1.3,2.13-2.21,3.2-2.21.19,0,.37.03.55.09.38.12.81.41,1.28.71.86.55,1.93,1.25,3.31,1.36.14.01.28.02.41.02,1.93,0,3.4-1.13,4.58-2.04.82-.63,1.59-1.23,2.22-1.25h0c.39,0,.86.16,1.37.33.44.15.94.32,1.48.43.53.11,1.08.16,1.63.16,3.08,0,5.85-1.71,8.29-3.21,1.59-.98,3.09-1.91,4.44-2.25l1.51-.38v-1.55c0-1.27-.56-3.56-4.3-4.56-2-.53-4.47-.59-6.15-.59-.71,0-1.38.01-1.98.02h-.16c-1,.02-1.89.27-2.68.49-.62.17-1.21.33-1.71.34h0c-.75,0-1.59-.32-2.47-.67-.41-.16-.83-.32-1.27-.47-2.69-.89-5.51-.89-8-.89h-15.53Z"/>
    </g>
    <g>
      <path class="cls-13" d="M506.77,53.38c-.12,0-.25,0-.38-.02l-.73-.06-.16-.72c-.27-1.21-.14-2.39-.01-3.54.05-.49.11-.98.13-1.47.04-1.16-.27-2.68-1.28-3.15-.3-.14-.66-.2-1.17-.2-.28,0-.56.02-.83.03-.28.02-.56.03-.84.04h0c-2.69,0-6.17-1.48-7.5-3.95-.49-.9-.57-1.73-.25-2.45.59-1.34,2.27-1.77,3.9-2.19.68-.18,1.33-.34,1.78-.55.37-.17.74-.35,1.11-.53,1.81-.87,3.68-1.76,5.77-1.96.23-.02.46-.03.7-.03,2.35,0,5.24,1.21,6.03,3.87.57,1.94-.15,3.71-.85,5.43-.48,1.17-.93,2.28-.95,3.37,0,.48.07.98.15,1.51.12.79.25,1.61.13,2.48-.32,2.25-2.44,4.08-4.74,4.08Z"/>
      <path class="cls-17" d="M506.99,33.63c2.17,0,4.46,1.1,5.07,3.15.84,2.83-1.8,5.56-1.84,8.51-.02,1.3.47,2.58.29,3.87-.25,1.78-1.96,3.22-3.75,3.22-.1,0-.19,0-.29-.01-.34-1.55.08-3.16.14-4.75.06-1.59-.42-3.42-1.86-4.1-.5-.23-1.04-.29-1.6-.29s-1.13.06-1.69.07c-.02,0-.05,0-.07,0-2.3,0-5.39-1.3-6.54-3.42-1.55-2.89,2.92-2.87,4.96-3.81,2.13-.98,4.23-2.18,6.56-2.4.2-.02.4-.03.6-.03M506.99,31.63h0c-.27,0-.53.01-.79.04-2.27.22-4.22,1.15-6.11,2.06-.37.17-.73.35-1.09.52-.37.17-1,.33-1.61.49-1.77.46-3.78.97-4.56,2.76-.31.7-.51,1.85.29,3.33,1.57,2.91,5.44,4.48,8.3,4.48h.1c.29,0,.59-.02.88-.04.26-.01.52-.03.78-.03.35,0,.6.03.75.11.44.21.75,1.16.71,2.21-.02.44-.07.9-.12,1.39-.13,1.17-.27,2.49.03,3.86l.32,1.43,1.46.13c.16.01.31.02.46.02,2.82,0,5.34-2.17,5.73-4.94.14-1.02,0-1.96-.13-2.78-.08-.49-.15-.95-.14-1.34.01-.9.43-1.92.87-3.01.73-1.79,1.56-3.82.89-6.09-.8-2.7-3.67-4.59-6.99-4.59h0Z"/>
    </g>
    <g>
      <path class="cls-11" d="M496.18,96.09c-.14-2.04-2.76-3.26-5.21-3.26-.94,0-1.82.1-2.75.2-.98.1-1.99.21-3,.21-1.09,0-2.05-.13-2.92-.4-.94-.29-1.79-.75-2.61-1.18-.93-.5-1.8-.97-2.73-1.15-.33-.07-.68-.1-1.05-.1-1.1,0-2.27.28-3.4.56-1.25.3-2.46.57-3.7.57-.59,0-1.14-.06-1.66-.19-1.28-.3-3.93-1.65-3.48-3.7.37-1.71,2.74-1.92,4.31-2.05.29-.03.55-.05.73-.08l10.57-1.8c3.49-.6,7.45-1.27,11.31-1.27,1.62,0,3.1.11,4.54.34,1.45.23,3.28.67,4.63,1.96,1.6,1.53,2.21,4.09,1.56,6.53-.49,1.83-1.58,3.56-3.43,5.43l-1.56,1.58-.15-2.21Z"/>
      <path class="cls-17" d="M490.59,83.45c1.47,0,2.93.1,4.38.33,1.48.24,3.02.66,4.1,1.69,1.44,1.38,1.8,3.63,1.28,5.55s-1.77,3.57-3.17,4.99c-.19-2.75-3.44-4.19-6.21-4.19-.03,0-.05,0-.08,0-1.88.02-3.8.42-5.67.42-.89,0-1.76-.09-2.62-.35-1.89-.58-3.49-1.97-5.43-2.36-.42-.08-.83-.12-1.25-.12-1.22,0-2.44.3-3.64.59-1.13.28-2.31.54-3.46.54-.48,0-.96-.05-1.43-.16-.93-.22-3-1.27-2.73-2.52.27-1.25,3.25-1.19,4.23-1.36,3.52-.6,7.05-1.2,10.57-1.8,3.68-.63,7.42-1.26,11.14-1.26M490.59,81.45h0c-3.94,0-7.94.68-11.47,1.28l-3.61.62-6.96,1.19c-.12.02-.4.04-.65.07-1.75.15-4.67.41-5.2,2.84-.61,2.79,2.59,4.5,4.23,4.89.59.14,1.23.21,1.89.21,1.35,0,2.63-.28,3.93-.6,1.13-.27,2.19-.53,3.17-.53.31,0,.59.03.86.08.78.16,1.59.59,2.45,1.05.86.46,1.75.94,2.79,1.26.97.3,2.02.44,3.21.44,1.06,0,2.1-.11,3.1-.22.91-.1,1.76-.19,2.59-.2h.06c1.96,0,4.12.94,4.21,2.33l.31,4.42,3.11-3.15c1.95-1.97,3.15-3.89,3.68-5.88.75-2.79.03-5.74-1.83-7.52-1.55-1.48-3.58-1.97-5.17-2.22-1.49-.24-3.03-.36-4.7-.36h0Z"/>
    </g>
    <g>
      <path class="cls-12" d="M536.61,85.32c-2.39-.91-2.87-3.78-3.18-5.69-.26-1.56-1-3.39-2.26-3.41h0c-.21,0-.43.04-.67.08-.29.05-.63.11-.98.11-.23,0-.45-.02-.66-.08-.95-.23-1.53-.93-2-1.49-.23-.28-.45-.54-.68-.71-.26-.19-.99-.29-2.18-.29-.33,0-.66,0-1,.01-.35,0-.7.01-1.05.01-1.66,0-3.5-.11-4.26-1.43-.53-.94-.33-2.18.62-3.79,1.71-2.89,5.55-3.23,8.29-3.23,1.23,0,2.48.08,3.59.14.95.06,1.84.11,2.59.11h.56c1.21,0,2.9.16,3.73,1.57.15.26.24.52.32.75.06.17.12.33.18.43.11.16.35.25.66.25.18,0,.37-.03.54-.1.49-.18.95-.55,1.44-.94.16-.13.32-.26.48-.38,1.82-1.38,4.11-2.24,6.44-2.43h.15c.78,0,1.46.47,1.74,1.21.27.71.08,1.5-.49,2-.45.4-.88.91-1.28,1.52-.23.35-.45.7-.66,1.06-.78,1.29-1.59,2.62-2.93,3.55-.45.31-.91.54-1.36.77-.33.17-.67.33-.98.54-2.56,1.64-3.13,5.29-3.37,8.99l-.09,1.35-1.27-.48Z"/>
      <path class="cls-17" d="M547.29,65.82c.75,0,1.17.95.59,1.46-.56.5-1.05,1.1-1.45,1.71-1.01,1.53-1.82,3.29-3.33,4.34-.72.5-1.57.81-2.31,1.28-3.06,1.96-3.6,6.14-3.83,9.76-1.81-.69-2.23-3-2.55-4.91s-1.29-4.22-3.23-4.25c-.01,0-.02,0-.03,0-.55,0-1.09.19-1.63.19-.14,0-.28-.01-.42-.05-1.01-.24-1.48-1.4-2.32-2.02-.55-.42-1.61-.49-2.79-.49-.67,0-1.37.02-2.05.02-2.58,0-4.76-.35-2.78-3.71,1.33-2.26,4.35-2.74,7.43-2.74,2.24,0,4.5.25,6.18.25.1,0,.2,0,.29,0,.09,0,.18,0,.27,0,1.1,0,2.32.15,2.85,1.08.23.39.29.86.54,1.23.32.48.9.69,1.49.69.3,0,.61-.06.89-.16.82-.31,1.48-.93,2.18-1.46,1.71-1.29,3.79-2.06,5.92-2.23.03,0,.05,0,.07,0M547.29,63.82c-.08,0-.16,0-.24,0-2.56.21-4.97,1.12-6.97,2.63-.17.13-.34.26-.5.39-.43.34-.83.66-1.17.79-.03,0-.06.02-.09.02,0,0,0,0,0,0-.09-.24-.2-.57-.4-.92-1.21-2.07-3.75-2.07-4.58-2.07-.11,0-.21,0-.32,0-.08,0-.17,0-.25,0-.71,0-1.59-.05-2.53-.11-1.12-.07-2.39-.14-3.65-.14-2.99,0-7.18.39-9.15,3.72-.42.72-1.71,2.89-.63,4.79,1.11,1.94,3.72,1.94,5.13,1.94.35,0,.71,0,1.07-.01.33,0,.66-.01.98-.01,1.09,0,1.49.08,1.63.13.13.11.3.32.47.52.54.64,1.27,1.51,2.53,1.82.28.07.58.1.89.1.44,0,.84-.07,1.15-.13.18-.03.37-.07.47-.07.41,0,1.04,1.07,1.29,2.58.33,2,.88,5.34,3.81,6.46l2.53.96.17-2.71c.22-3.43.72-6.8,2.91-8.21.26-.16.56-.32.89-.48.46-.23.97-.49,1.48-.84,1.51-1.05,2.41-2.54,3.21-3.85.21-.35.42-.7.64-1.03.35-.53.73-.98,1.11-1.32.88-.78,1.18-2,.76-3.1-.43-1.13-1.48-1.86-2.68-1.86h0Z"/>
    </g>
    <path class="cls-18" d="M569.94,100.99c-.57-7.97-1.14-15.94-1.71-23.91-.14-1.89-.26-3.84.4-5.61.63-1.68,1.9-3.02,3.15-4.3.91-.94,1.97-1.95,3.28-1.91.96.03,1.78.62,2.64,1.05,2.22,1.12,4.81,1.18,7.29,1.22,2.31.04,4.64.08,6.87.67,2.56.68,4.92,2.1,6.73,4.05-3.3-1.17-7.25-.2-9.63,2.36-.77.83-1.43,1.84-2.46,2.31-1.65.75-3.73-.13-5.36.68-2.23,1.11-2.06,4.37-3.48,6.41-1.12,1.6-3.23,2.42-4.02,4.21-.7,1.56-.17,3.37-.25,5.08s-1.43,3.71-3.07,3.21"/>
    <path class="cls-21" d="M619.98,68.6c-.04-.85-.07-1.74.3-2.51.83-1.72,3.13-1.96,5.04-1.96,3.07,0,6.13.02,9.2.07,5,.08,10.08.23,14.84,1.76,0,1.57-4.57.22-6.29,1.83s-3.64,3.56-5.98,3.29c-1.56-.18-3.28-1.31-4.52-.35-.85.66-.97,2.04-1.93,2.51-.88.43-1.92-.16-2.89-.07-1.13.1-1.96,1.06-2.66,1.95-.86,1.09-1.96,3.26-3.13,3.97-1.47.89-1.19.67-1.53-.92-.64-3.03-.2-6.49-.46-9.58Z"/>
    <path class="cls-20" d="M604.39,118.93c.4,1.02.83,2.25,1.89,2.52.88.23,1.8-.34,2.69-.16,1.4.28,1.88,2.12,3.14,2.78.94.49,2.14.2,2.98-.43s1.42-1.57,1.98-2.47c1.13-1.85,2.26-3.7,3.39-5.54.27-.44.71-.95,1.2-.79.5.17.53.85.47,1.37-.31,2.57-.61,5.13-.92,7.7-.09.72-.19,1.49-.65,2.05-.92,1.15-2.76.92-4,1.7-.99.63-1.48,1.79-2.17,2.74s-1.99,1.73-3,1.15c-1.06-.61-1.14-2.33-2.27-2.79-1.32-.55-3.21,1.01-4.09-.13-.34-.44-.27-1.09-.54-1.58-.34-.61-1.09-.82-1.68-1.19-1.09-.69-1.65-2.01-1.74-3.3-.08-1.17.08-3.69.83-4.69.93-1.24,1.85-.56,2.49,1.07Z"/>
    <path class="cls-19" d="M667.58,43.05c1.41-2.55,3.32-4.96,3.72-7.85.13-.94.14-1.99.81-2.66.64-.63,1.63-.66,2.53-.65,1.6.01,3.2.03,4.8.04,1.66.01,3.33.03,4.95.39,2.36.53,4.48,1.76,6.57,2.98,1.01.59,2.05,1.21,2.78,2.13s1.08,2.24.56,3.3c-.69-.97-2.11-1.06-3.26-.76s-2.25.88-3.43.92c-1.23.04-2.39-.5-3.57-.84s-2.58-.44-3.52.36c-1.5,1.28-1.1,4.2-2.92,4.95-1.39.57-2.94-.67-4.42-.39-2.74.51-2.62,5.76-5.5,5.55-3.34-.24-.91-5.97-.09-7.45Z"/>
    <path class="cls-24" d="M659.83,76.32c.11-.94.32-1.97,1.09-2.52.47-.34,1.06-.43,1.64-.5,7.49-.95,15.19-.13,22.31,2.38-.95,1.62-3.22,1.7-5.09,1.59s-4.15,0-5.06,1.65c-.58,1.05-.36,2.42-1,3.44-1.28,2.02-4.64,1.1-6.48,2.63-1.09.91-1.38,2.47-1.35,3.89.02,1.27.78,5.75-1.26,6.12-1.72.31-2.88-3.81-3.27-4.94-1.53-4.39-2.07-9.12-1.53-13.73Z"/>
    <path class="cls-23" d="M719.33,39.26c-.18-1.62-.25-3.55,1.02-4.57.94-.76,2.27-.72,3.48-.64,7.88.51,15.75,1.01,23.62,1.7,1.17.1,2.75.72,2.46,1.87-.21.83-1.26,1.05-2.11,1.13-5.5.5-10.95,1.54-16.23,3.12-1.14.34-2.36.76-3.07,1.72-.64.86-.74,1.99-.86,3.05-.19,1.79-.48,3.63-1.5,5.12-.59.86-2.38,2.51-3.58,1.97-1.05-.47-1.27-2.68-1.52-3.65-.9-3.54-1.31-7.19-1.72-10.81Z"/>
    <path class="cls-22" d="M759.07,64.97c1.09.3,2.25-.05,3.37.05,1.06.1,2.04.59,2.98,1.07.79.41,1.63.85,2.09,1.61.55.91.45,2.05.33,3.1-.11.98-.22,1.96-.33,2.94-.08.68-.29,1.52-.97,1.65-.52.1-.99-.32-1.3-.75s-.56-.94-1.02-1.19c-1.08-.58-2.43.61-3.6.22-.96-.32-1.33-1.52-2.22-2-1.18-.63-2.64.3-3.96.04-2.67-.54-2.77-5.15-1.79-7.08,1.68-3.32,4.08-.3,6.4.34Z"/>
    <g>
      <path class="cls-3" d="M309.95,125.04c-.76,0-1.45-.23-1.99-.66-.48-.38-.76-.86-1.02-1.28-.14-.23-.27-.45-.41-.61-.42-.49-1.12-.77-1.87-1.06-.41-.16-.84-.33-1.25-.55-1.6-.83-2.48-2.8-2.08-4.68.35-1.68,1.63-2.8,3.33-2.91.09,0,.17,0,.26,0,1.28,0,2.4.61,3.38,1.14.82.45,1.6.82,2.28.82.11,0,.23-.01.35-.03.15-.03.3-.08.44-.12.35-.11.75-.24,1.22-.24h.12c.73.04,1.31.39,1.78.68.17.1.33.2.5.29.29.14.63.21,1,.21.52,0,1.08-.14,1.61-.4.71-.34,1.33-.86,1.8-1.26.4-.35.92-.55,1.46-.55.92,0,1.71.55,2.02,1.39.4,1.08.28,2.37-.31,3.37-.73,1.24-2.04,2.15-4.01,2.78-.38.12-.76.23-1.14.34-.97.28-1.89.54-2.67,1-.37.22-.73.48-1.11.77-.48.36-.99.74-1.57,1.05-.67.35-1.42.54-2.12.54Z"/>
      <path class="cls-17" d="M304.92,114.28c1.06,0,2.05.56,2.99,1.07.83.45,1.75.89,2.68.89.18,0,.36-.02.54-.05.49-.1.96-.35,1.46-.35.02,0,.05,0,.07,0,.7.03,1.27.56,1.91.86.45.21.93.3,1.42.3.7,0,1.42-.19,2.05-.5.74-.36,1.4-.86,2.02-1.41.23-.2.52-.3.8-.3.46,0,.9.26,1.08.73.29.79.21,1.77-.23,2.51-.72,1.22-2.1,1.9-3.46,2.34s-2.78.71-4.01,1.43c-.92.54-1.69,1.3-2.64,1.79-.5.26-1.09.43-1.65.43-.5,0-.97-.13-1.36-.44-.57-.46-.82-1.21-1.29-1.76-.85-1-2.26-1.25-3.42-1.85-2.38-1.24-2.21-5.5.85-5.7.06,0,.13,0,.19,0M304.92,112.28c-.11,0-.21,0-.32.01-2.13.14-3.8,1.59-4.24,3.7-.49,2.31.61,4.74,2.6,5.77.46.24.93.42,1.34.59.63.25,1.22.48,1.48.78.09.1.2.29.31.48.28.47.63,1.05,1.25,1.54.72.58,1.62.89,2.62.89.86,0,1.75-.23,2.58-.66.65-.34,1.21-.76,1.71-1.13.35-.27.69-.52,1.01-.7.68-.4,1.54-.64,2.44-.9.39-.11.79-.23,1.18-.35,2.21-.71,3.7-1.77,4.56-3.23.74-1.24.88-2.86.39-4.22-.45-1.24-1.61-2.05-2.96-2.05-.78,0-1.53.28-2.11.79-.62.54-1.11.89-1.58,1.12-.4.19-.81.3-1.18.3-.22,0-.41-.04-.57-.11-.11-.05-.25-.14-.41-.23-.53-.33-1.27-.77-2.26-.82-.05,0-.11,0-.16,0-.62,0-1.14.17-1.52.29-.11.04-.22.08-.34.1-.05,0-.09.01-.15.01-.53,0-1.33-.44-1.72-.65l-.09-.05c-1.03-.56-2.32-1.27-3.86-1.27h0Z"/>
    </g>
    <g>
      <path class="cls-5" d="M275.29,93.5c-1.01,0-1.86-.37-2.45-1.06-.85-1-1.11-2.59-.77-4.73.8-5.04,3.9-9.19,7.27-13.35,2.69-3.31,5.74-7.07,10.08-8.91,3.06-1.3,6.48-1.49,9.51-1.65,1.57-.09,2.84-.13,4-.13,4.36,0,10.58.51,14.37,4.94l.96,1.12-15.69,5.28c-1.06.36-2.15.72-2.88,1.45-.85.84-1.22,2.15-1.62,3.53-.53,1.83-1.13,3.91-3.06,4.94-1.11.59-2.32.62-3.4.64-.55.01-1.06.03-1.54.1-1.53.24-2.92,1.18-4.27,2.08l-5.92,3.98c-1.73,1.16-3.27,1.75-4.58,1.75Z"/>
      <path class="cls-17" d="M302.93,64.68c5.15,0,10.37.81,13.61,4.59-4.76,1.6-9.53,3.21-14.29,4.81-1.17.39-2.39.82-3.27,1.69-2.28,2.26-1.61,6.79-4.45,8.29-1.39.74-3.08.39-4.63.64-1.72.27-3.22,1.27-4.67,2.24-1.98,1.33-3.95,2.65-5.93,3.98-1.54,1.04-2.93,1.58-4.02,1.58-1.77,0-2.74-1.46-2.23-4.63.78-4.93,3.99-9.1,7.06-12.87,2.76-3.39,5.67-6.91,9.7-8.62,2.87-1.22,6.06-1.41,9.17-1.58,1.29-.07,2.62-.12,3.95-.12M302.93,62.68c-1.18,0-2.47.04-4.06.13-3.1.17-6.62.36-9.84,1.73-4.57,1.94-7.84,5.97-10.47,9.2-3.46,4.27-6.64,8.53-7.48,13.82-.39,2.44-.05,4.3,1,5.53.79.92,1.9,1.41,3.21,1.41,1.51,0,3.23-.65,5.13-1.92l2.96-1.99,2.96-1.99c1.25-.84,2.55-1.71,3.87-1.92.42-.07.9-.08,1.41-.09,1.18-.03,2.53-.06,3.84-.76,2.3-1.22,3-3.62,3.55-5.54.36-1.26.71-2.44,1.37-3.1.57-.56,1.55-.89,2.5-1.21l5.55-1.87,8.74-2.94,2.81-.94-1.92-2.25c-4.05-4.75-10.58-5.29-15.13-5.29h0Z"/>
    </g>
    <g>
      <path class="cls-4" d="M352.82,81.73c-.08,0-.16,0-.24-.01-1.56-.16-2.47-1.72-2.53-3.11-.03-.71.09-1.36.21-1.99.07-.35.14-.71.17-1.06.06-.63-.08-1.38-.52-1.62-.1-.05-.21-.09-.31-.13-.32-.12-.75-.28-1.1-.65-.48-.5-.58-1.13-.65-1.58-.02-.14-.04-.28-.08-.41-.17-.59-.86-.97-1.48-1.08-.22-.04-.46-.06-.72-.06-.55,0-1.11.08-1.71.17l-.27.04c-.56.08-1.42.18-2.39.18h0c-5.07,0-5.91-2.5-5.96-3.99-.04-1.2.32-2.21,1.09-3,1.39-1.44,3.7-1.74,5.39-1.74.63,0,1.28.04,1.88.13l7.32,1.02c1.51.21,3.57.5,4.97,1.92,1.87,1.9,1.61,4.73,1.29,6.26-.15.73-.36,1.44-.57,2.13-.33,1.12-.64,2.17-.71,3.24-.02.26-.02.53-.02.79,0,.71-.02,1.44-.25,2.2-.34,1.13-1.36,2.35-2.8,2.35Z"/>
      <path class="cls-17" d="M341.7,62.68c.64,0,1.24.05,1.74.12,2.44.34,4.88.68,7.32,1.02,1.58.22,3.28.5,4.4,1.63,1.33,1.35,1.42,3.5,1.02,5.35-.39,1.85-1.17,3.63-1.3,5.52-.06.93.04,1.88-.23,2.77-.25.84-.98,1.64-1.84,1.64-.05,0-.09,0-.14,0-.98-.1-1.59-1.18-1.63-2.16-.05-.98.29-1.94.38-2.92s-.18-2.12-1.04-2.59c-.39-.21-.87-.27-1.17-.59-.38-.4-.33-1.03-.48-1.57-.28-.98-1.27-1.61-2.26-1.79-.3-.05-.6-.08-.9-.08-.71,0-1.43.12-2.13.22-.62.09-1.41.17-2.25.17-2.29,0-4.88-.57-4.97-3.03-.11-2.97,2.97-3.7,5.48-3.7M341.7,60.68c-1.89,0-4.48.35-6.11,2.04-.95.98-1.42,2.27-1.37,3.73.16,4.6,5.37,4.96,6.97,4.96,1.03,0,1.95-.1,2.54-.19l.27-.04c.56-.08,1.1-.16,1.57-.16.2,0,.38.01.54.04.41.07.67.3.7.37.03.09.04.19.05.29.08.52.21,1.39.91,2.12.51.54,1.12.76,1.48.89.04.01.08.03.12.04.04.11.1.35.07.68-.03.29-.09.62-.15.96-.12.66-.27,1.4-.23,2.23.08,1.81,1.31,3.85,3.43,4.06.11.01.23.02.34.02,1.67,0,3.21-1.26,3.76-3.06.27-.89.28-1.73.29-2.47,0-.25,0-.5.02-.74.06-.96.36-1.96.67-3.03.21-.71.42-1.44.59-2.21.63-2.97.07-5.51-1.56-7.17-1.64-1.67-3.99-1.99-5.55-2.21l-7.18-1-.14-.02c-.64-.09-1.34-.14-2.02-.14h0Z"/>
    </g>
    <g>
      <path class="cls-6" d="M234.5,94.56c-.22,0-.45-.02-.69-.07-.88-.17-1.58-.65-2.19-1.08-.5-.34-.96-.66-1.42-.76-.12-.02-.24-.03-.36-.03-.47,0-1,.14-1.56.29-.64.17-1.3.35-1.99.35-.56,0-1.07-.12-1.53-.36-2.07-1.07-2.05-3.8-1.17-5.88.2-.47.36-1.16.54-1.89.51-2.16,1.15-4.84,3.55-5.38.24-.05.5-.08.75-.08,1.14,0,2.25.56,2.91,1.45.35.47.55.99.73,1.45.13.33.26.65.42.9.78,1.2,2.66,1.36,4.39,1.36h.15c2.72-.01,5.54-.03,8.06-.98.23-.09.46-.18.69-.28.88-.37,1.88-.78,2.98-.78,2.37,0,4.1,1.78,5.53,3.44l.35.41-.15.52c-.88,3.09-4.39,4.19-7.39,4.19h-.11c-.59,0-1.19-.03-1.79-.06-.64-.03-1.27-.06-1.9-.06-1.59,0-2.72.22-3.64.72-.46.25-.93.59-1.42.95-1.07.78-2.28,1.67-3.75,1.67Z"/>
      <path class="cls-17" d="M228.43,80.69c.81,0,1.63.39,2.11,1.04.51.69.65,1.58,1.11,2.3,1.05,1.62,3.29,1.82,5.23,1.82.05,0,.1,0,.15,0,2.84-.01,5.75-.04,8.41-1.05,1.09-.41,2.16-.99,3.32-.99h0c1.96,0,3.49,1.61,4.77,3.09-.72,2.52-3.8,3.46-6.43,3.46-.03,0-.06,0-.1,0-1.22-.01-2.47-.13-3.7-.13-1.45,0-2.85.16-4.11.84-1.58.85-2.99,2.5-4.7,2.5-.16,0-.33-.02-.5-.05-1.33-.26-2.28-1.56-3.61-1.83-.19-.04-.37-.05-.56-.05-1.18,0-2.42.64-3.55.64-.37,0-.73-.07-1.07-.24-1.52-.79-1.38-3.02-.71-4.6.83-1.94.89-6.12,3.39-6.68.18-.04.36-.06.53-.06M228.43,78.69h0c-.33,0-.66.04-.97.11-3.01.67-3.79,3.95-4.31,6.12-.16.69-.32,1.33-.48,1.72-1.52,3.56-.22,6.2,1.63,7.16.6.31,1.27.47,1.99.47.82,0,1.58-.2,2.25-.38.49-.13.96-.26,1.3-.26.06,0,.12,0,.17.01.26.05.66.33,1.05.6.66.46,1.49,1.03,2.57,1.23.29.06.58.08.87.08,1.79,0,3.2-1.03,4.34-1.86.46-.34.9-.66,1.3-.87.77-.41,1.75-.6,3.17-.6.6,0,1.21.03,1.85.06.6.03,1.21.06,1.83.06h.11c3.36,0,7.32-1.29,8.35-4.91l.29-1.04-.7-.82c-1.14-1.32-3.26-3.78-6.28-3.78-1.31,0-2.4.46-3.37.86-.22.09-.44.18-.66.27-2.35.89-5.07.91-7.71.92h-.14c-1.27,0-3.03-.09-3.55-.91-.11-.17-.21-.44-.33-.72-.19-.49-.43-1.1-.86-1.68-.86-1.16-2.25-1.85-3.72-1.85h0Z"/>
    </g>
  </g>
</svg>