<svg width="216" height="63" viewBox="0 0 216 63" fill="none" xmlns="http://www.w3.org/2000/svg">
<path d="M141.197 47.2787C149.607 46.7354 149.291 38.8784 149.607 38.6476L140.533 45.2869L136.771 47.2787H141.197Z" fill="#FF7900"/>
<path d="M66.8367 15.1886C71.2629 15.1886 74.3613 17.1804 76.1318 19.8361V16.7377C76.1318 16.2951 77.6204 14.9137 78.1619 15.022L84.3203 15.6312C84.9842 15.6312 85.4269 16.0738 85.4269 16.5164L86.5334 43.2951C86.5334 43.7377 85.6482 44.8443 85.2056 44.8443H77.4597C76.7957 44.8443 76.3531 44.4017 76.3531 43.959V40.8607C74.5826 43.5164 71.4842 45.5082 67.058 45.5082C59.7547 45.5082 54.0006 39.5328 54.0006 30.4591C53.558 20.9429 59.5334 15.1886 66.8367 15.1886ZM69.4924 22.9345C65.9515 22.9345 62.8531 25.3689 62.8531 30.2377C62.8531 34.8853 65.9515 37.541 69.4924 37.541C73.0334 37.541 76.1318 34.8853 76.1318 30.2377C76.1318 25.5902 73.0334 22.9345 69.4924 22.9345Z" fill="#FF7900"/>
<path d="M111.983 23.1557L100.475 36.4344C100.254 36.6557 100.475 37.3197 100.918 37.3197H111.762C112.426 37.3197 112.869 37.7623 112.869 38.2049L113.923 43.2751C113.736 43.9773 112.426 44.6229 111.983 44.6229H90.7374C90.0735 44.6229 89.6309 44.1803 89.6309 43.5164V38.2049C89.6309 37.7623 89.8522 37.0983 90.0735 36.877L101.36 23.5983C101.582 23.1557 101.36 22.7131 100.918 22.7131H90.7374C90.0735 22.7131 89.6309 22.2705 89.6309 21.8279V16.2951C89.6309 15.8524 90.2614 14.8594 91.4928 14.7533L111.541 15.1885C112.205 15.1885 112.647 15.6311 112.647 16.2951V21.6065C112.647 22.2705 112.426 22.9344 111.983 23.1557Z" fill="#FF7900"/>
<path d="M136.992 44.8443H120.615C119.951 44.8443 119.287 44.4017 119.287 43.5164V8.99206C119.287 8.32812 120.818 7.05249 121.482 7.05249L136.328 7.66397C144.074 7.66397 148.5 11.4263 148.5 17.1804C148.5 21.6066 145.376 24.1561 141.614 25.2627C146.04 26.1479 149.385 30.2377 149.385 34.4427C149.607 40.8607 144.959 44.8443 136.992 44.8443ZM134.558 15.1886H129.246C128.804 15.1886 128.361 15.6312 128.361 16.0738V22.2705C128.361 22.7131 128.804 23.1558 129.246 23.1558H134.558C137.656 23.1558 139.205 21.8279 139.205 19.3935C139.426 16.5164 137.656 15.1886 134.558 15.1886ZM135.222 29.3525H129.467C129.025 29.3525 128.582 29.7951 128.582 30.2377V36.8771C128.582 37.3197 129.025 37.7623 129.467 37.7623H135.443C138.541 37.7623 140.312 36.4345 140.312 33.7787C140.312 31.123 138.32 29.3525 135.222 29.3525Z" fill="#FF7900"/>
<path d="M167.754 45.2868C158.902 45.2868 152.705 39.5327 152.705 30.2377C152.705 20.9426 158.902 15.1885 167.754 15.1885C176.607 15.1885 182.582 20.9426 182.582 29.795C182.582 30.459 183.467 30.459 183.467 30.9016C183.386 31.6613 181.918 32.4508 181.476 32.4508H162C161.779 32.4508 161.558 32.6721 161.558 32.8934C162 36.4344 164.435 37.9836 167.09 37.9836C169.303 37.9836 171.738 38.2049 172.623 36.877C172.844 36.4344 173.066 34.4426 173.73 34.4426L180.369 35.1065C181.033 35.1065 181.476 35.7704 181.254 36.4344C180.812 37.5409 179.705 38.2049 179.041 39.0901C178.377 39.9754 178.156 40.6393 177.492 41.3032C175.279 43.5163 171.959 45.2868 167.754 45.2868ZM162.221 27.3606H172.844C173.066 27.3606 173.287 27.1393 173.287 26.918C173.066 24.0409 170.631 22.2704 167.754 22.2704C164.877 22.2704 162.664 23.8196 162 26.918C161.779 27.1393 162 27.3606 162.221 27.3606Z" fill="#FF7900"/>
<path d="M200.066 45.2868C191.213 45.2868 185.017 39.5327 185.017 30.2377C185.017 20.9426 191.213 15.1885 200.066 15.1885C208.918 15.1885 214.894 20.9426 214.894 29.795C214.894 30.459 215.779 30.459 215.779 30.9016C215.779 31.3442 214.23 32.4508 213.787 32.4508H194.312C194.09 32.4508 193.869 32.6721 193.869 32.8934C194.312 36.4344 196.746 37.9836 199.402 37.9836C201.615 37.9836 203.164 37.7622 204.049 36.4344C204.271 35.9918 205.377 34.4426 206.041 34.4426L212.681 35.1065C213.344 35.1065 213.787 35.7704 213.566 36.4344C212.017 41.5248 206.926 45.2868 200.066 45.2868ZM194.533 27.3606H205.156C205.377 27.3606 205.599 27.1393 205.599 26.918C205.377 24.0409 202.943 22.2704 200.066 22.2704C197.189 22.2704 194.976 23.8196 194.312 26.918C194.09 27.1393 194.312 27.3606 194.533 27.3606Z" fill="#FF7900"/>
<path d="M67.9431 14.3032C72.3693 14.3032 75.4677 16.295 77.2382 18.9508V15.8524C77.2382 15.4098 77.6808 14.9672 78.3448 14.9672H85.4267C86.0907 14.9672 86.5333 15.4098 86.5333 15.8524V43.295C86.478 43.7227 86.242 44.1232 85.4267 44.1803H78.3448C77.6808 44.1803 77.2382 43.7376 77.2382 43.295V40.1967C75.4677 42.8524 72.3693 44.8442 67.9431 44.8442C60.6398 44.8442 54.8857 38.8688 54.8857 29.795C54.8857 20.7213 60.4185 14.3032 67.9431 14.3032ZM70.5989 22.2704C67.0579 22.2704 63.9595 24.7049 63.9595 29.5737C63.9595 34.4426 67.0579 36.877 70.5989 36.877C74.1398 36.877 77.2382 34.2212 77.2382 29.5737C77.2382 24.9262 73.9185 22.2704 70.5989 22.2704Z" fill="url(#paint0_linear_308_36042)"/>
<path d="M113.09 22.4917L101.582 35.7704C101.361 35.9917 101.582 36.6557 102.025 36.6557H112.869C113.533 36.6557 113.976 37.0983 113.976 37.5409V43.0737C113.976 43.5163 113.533 43.959 112.869 43.959H91.6232C90.9592 43.959 90.5166 43.5163 90.5166 42.8524V37.5409C90.5166 37.0983 90.7379 36.4344 90.9592 36.2131L102.246 22.9344C102.467 22.4917 102.246 22.0491 101.803 22.0491H91.6232C90.9592 22.0491 90.5166 21.6065 90.5166 21.1639V15.6311C90.5166 15.1885 90.9592 14.7458 91.6232 14.7458H112.426C113.09 14.7458 113.533 15.1885 113.533 15.8524V21.1639C113.533 21.6065 113.312 22.0491 113.09 22.4917Z" fill="url(#paint1_linear_308_36042)"/>
<path d="M138.098 44.1803H121.721C121.057 44.1803 120.394 43.7377 120.394 42.8525V8.32787C120.394 7.66393 121.057 7 121.721 7H137.435C145.18 7 149.607 10.7623 149.607 16.5164C149.607 20.9426 146.951 23.8197 143.189 24.9262C147.615 25.8115 150.492 29.5738 150.492 33.7787C150.492 40.1967 146.066 44.1803 138.098 44.1803ZM135.664 14.3033H130.353C129.91 14.3033 129.467 14.7459 129.467 15.1885V21.3852C129.467 21.8279 129.91 22.2705 130.353 22.2705H135.664C138.762 22.2705 140.312 20.9426 140.312 18.5082C140.312 15.8525 138.762 14.3033 135.664 14.3033ZM136.328 28.6885H130.574C130.131 28.6885 129.689 29.1311 129.689 29.5738V36.2131C129.689 36.6557 130.131 37.0984 130.574 37.0984H136.549C139.648 37.0984 141.418 35.7705 141.418 33.1147C141.197 30.2377 139.426 28.6885 136.328 28.6885Z" fill="#FFD41F"/>
<path d="M200.951 44.6229C192.098 44.6229 185.901 38.8688 185.901 29.5737C185.901 20.2786 192.098 14.5245 200.951 14.5245C209.803 14.5245 215.778 20.2786 215.778 29.1311V30.9016C215.778 31.3442 215.336 31.7868 214.672 31.7868H195.196C194.975 31.7868 194.754 32.0081 194.754 32.2294C195.196 35.7704 197.631 37.3196 200.287 37.3196C202.5 37.3196 203.828 36.4344 204.713 35.1065C204.934 34.6639 205.377 34.4426 206.041 34.4426H213.565C214.477 34.4426 214.831 35.3611 214.714 36.1015C213.165 41.1917 207.811 44.6229 200.951 44.6229ZM195.418 26.6967H206.041C206.262 26.6967 206.649 26.49 206.649 26.2687C206.428 23.3916 203.828 21.6065 200.951 21.6065C198.074 21.6065 195.86 23.1557 195.196 26.254C194.975 26.4754 195.196 26.6967 195.418 26.6967Z" fill="#FEC40C"/>
<path d="M120.393 13.418C120.393 13.418 117.959 20.2786 117.959 22.2704C117.959 24.2622 118.623 25.1475 120.393 25.3688V13.418Z" fill="#FFD41F"/>
<path d="M2.21311 7.22137L8.85246 7.88531C9.29508 7.88531 9.7377 8.32793 9.7377 8.77055L14.6066 30.9017C14.6066 31.3443 15.2705 31.3443 15.4918 30.9017L21.4672 8.77055C21.8158 7.48246 22.7189 7.08118 23.1615 7.08118L30.9836 7.88531C31.4262 7.88531 31.8688 8.10662 31.8688 8.54924L37.6229 30.6804C37.6229 31.123 38.2869 31.123 38.5082 30.6804L43.377 8.54924C43.4501 8.05865 43.9958 7.04065 45.3688 7.22137L52.2295 7.664C52.8934 7.664 53.3361 8.32793 53.1147 8.99187L45.1475 43.0738C44.9262 43.7378 44.2202 44.426 42.7131 44.623H33.8606C33.1967 44.623 32.7244 44.1779 32.5328 43.5164L26.7787 20.5001L21.7777 43.3597C21.5564 44.0237 19.918 44.8443 19.2541 44.8443H10.4016C9.7377 44.8443 9.29508 44.4017 9.07377 43.7378L0 9.2134C0 8.54924 1.54918 7.22137 2.21311 7.22137Z" fill="#FF7900"/>
<path d="M2.21332 7.22131H9.73791C10.1805 7.22131 10.6232 7.66394 10.6232 8.10656L15.492 30.2377C15.492 30.6803 16.1559 30.6803 16.3773 30.2377L22.3527 8.10678C22.574 7.66416 22.7953 7.44285 23.2379 7.44285H31.6477C32.0904 7.44285 32.533 7.66416 32.533 8.10678L38.2871 30.2379C38.2871 30.6805 38.951 30.6805 39.1723 30.2379L44.0412 8.10678C44.1102 7.64636 44.4838 7.22153 44.9264 7.22153H52.6723C53.3363 7.22153 53.7789 7.88547 53.5576 8.5494L45.1477 43.074C44.9264 43.7379 44.4838 44.1805 43.8199 44.1805H34.9674C34.3035 44.1805 33.7945 43.7043 33.6395 43.074L27.8855 19.8363L21.91 43.074C21.6887 43.7379 21.2461 44.1805 20.5822 44.1805H11.7297C11.0658 44.1805 10.6232 43.7379 10.4018 43.074L1.32808 8.77049C1.10677 8.10656 1.54939 7.22131 2.21332 7.22131Z" fill="url(#paint2_linear_308_36042)"/>
<path d="M53.5955 8.52704C53.5955 8.52704 45.2281 43.1367 45.0734 43.4031C44.9187 43.6694 44.6654 43.844 44.6654 43.844L53.0781 9.3984C53.2802 8.67102 52.8643 8.07245 52.223 8.07245H44.7413C44.5276 8.07245 44.2108 8.08383 43.9971 8.30482L44.0513 8.07245C44.1231 7.61157 44.5276 7.18848 44.9551 7.18848H52.6506C53.7194 7.40947 53.6992 8.10383 53.5955 8.52704Z" fill="#FFD53F"/>
<path d="M39.1724 30.2377C38.9511 31.1229 38.0658 30.9016 37.8445 30.459L32.3117 8.32787C32.0904 7.88525 31.8691 7.66393 31.4265 7.66393H23.238C23.0166 7.66393 22.5719 7.88468 22.3506 8.10599C22.524 7.7835 22.813 7 23.4593 7H31.6478C32.0904 7 32.533 7.44262 32.533 7.88525L38.1635 29.7095C38.6061 31.0374 39.1724 30.2377 39.1724 30.2377Z" fill="#FFD53F"/>
<path d="M16.3767 30.459C16.1554 31.3443 15.2701 31.5656 15.0488 30.9016L10.18 8.77049C10.18 8.32787 9.73735 7.88525 9.29473 7.88525C9.29473 7.88525 1.77014 7.66394 1.54883 7.88525C1.54883 7.66394 1.99145 7.44262 2.21276 7.22131H9.73735C10.18 7.22131 10.6226 7.66394 10.6226 8.10656L15.4914 30.2377C15.4914 30.459 15.7128 30.9014 16.3767 30.459Z" fill="#FFD53F"/>
<path d="M86.5334 15.6311V43.1496C86.5334 43.737 86.2278 43.9158 86.0907 43.998V16.5163C86.0907 16.0737 85.6481 15.6311 84.9842 15.6311H77.9022C77.6809 15.6311 77.4596 15.6311 77.2383 15.8524C77.2383 15.4098 77.6809 14.9671 78.3448 14.9671C78.3448 14.9671 83.6563 14.7458 85.8694 14.9671C86.5334 15.1884 86.5334 15.4098 86.5334 15.6311Z" fill="#FFD53F"/>
<path d="M76.795 18.2868L77.2376 18.9508V20.4999C77.2376 20.4999 73.0327 15.1885 67.4999 15.1885C63.0737 15.1885 59.0901 17.4016 56.877 20.9426C59.3114 16.7376 63.295 14.3032 67.9425 14.3032C72.1474 14.3032 75.2458 16.0737 76.795 18.2868Z" fill="#FFD53F"/>
<path d="M114.196 37.541V42.8525C114.196 43.2951 113.975 43.3789 113.754 43.6002V38.4262C113.754 37.9836 113.311 37.541 112.647 37.541H101.803C101.139 37.541 101.36 36.6558 101.582 35.9918C101.582 36.4344 101.803 36.6558 102.024 36.6558H113.311C113.975 36.6558 114.196 37.541 114.196 37.541Z" fill="#FFD53F"/>
<path d="M113.533 15.8524V21.1639C113.533 21.6065 113.312 22.2704 113.09 22.4917C113.09 22.2704 113.312 22.0491 113.312 21.8278V16.5163C113.312 15.8524 112.869 15.4098 112.205 15.4098H91.1805C90.9592 15.4098 90.7379 15.4098 90.5166 15.6311C90.5166 15.1885 90.9592 14.7458 91.6232 14.7458H112.648C113.09 14.7458 113.533 15.1885 113.533 15.8524Z" fill="#FFD53F"/>
<path d="M149.164 39.3115C149.828 37.9836 150.271 36.4345 150.271 34.664C150.271 30.4591 147.394 26.6968 142.967 25.8115C142.746 25.8115 142.525 25.8115 142.082 25.5902C142.303 25.5902 143.189 25.1476 143.41 25.1476C143.853 25.1476 144.074 25.3689 144.295 25.3689C148.279 26.4755 150.713 30.0164 150.713 34C150.492 35.9918 150.049 37.9834 149.164 39.3115Z" fill="#FFD53F"/>
<path d="M148.057 21.6066C148.721 20.5 149.163 18.9508 149.163 17.4016C149.163 11.6475 144.516 7.88525 136.991 7.88525H121.278C121.057 7.88525 120.614 7.88525 120.614 8.10656C120.614 7.44262 121.278 7 121.721 7H137.434C145.18 7 149.606 10.7623 149.606 16.5164C149.606 18.7295 149.163 20.2787 148.057 21.6066Z" fill="#FFD53F"/>
<path d="M183.467 28.9098V30.6803C183.467 30.9016 183.246 31.3442 183.025 31.3442V29.5737C183.025 20.7213 176.828 14.9672 168.197 14.9672C162.664 14.9672 158.143 17.2761 155.709 21.2597C158.143 16.8335 162.885 14.3032 168.64 14.3032C177.271 14.3032 183.467 20.0573 183.467 28.9098Z" fill="#FFD53F"/>
<path d="M139.647 20.7213C138.983 22.0491 137.434 22.9344 135.221 22.9344H129.91C129.467 22.9344 129.024 22.4918 129.024 22.0491V15.8524C129.024 15.6311 129.246 15.1885 129.467 15.1885V21.3852C129.467 21.8278 129.91 22.2704 130.352 22.2704H135.664C137.434 22.0491 138.762 21.6065 139.647 20.7213Z" fill="#FFD53F"/>
<path d="M206.699 26.9711C206.549 27.3182 206.421 27.3607 206.04 27.3607H194.975C194.754 27.3607 194.532 27.1394 194.532 26.9181C194.754 26.0328 194.975 25.3689 195.417 24.705C195.196 25.1476 194.975 25.5902 194.975 26.2541C194.975 26.4754 195.196 26.6968 195.417 26.6968H206.04C206.263 26.6968 206.618 26.4634 206.618 26.2421L206.699 26.9711Z" fill="#FFD53F"/>
<path d="M65.9641 42.8126C58.8358 42.8126 53.0566 37.2112 53.0566 30.3002C53.0566 23.3892 58.8358 17.7885 65.9641 17.7885C73.0925 17.7885 78.8723 23.3899 78.8723 30.3002C78.8723 37.2105 73.0932 42.8126 65.9641 42.8126Z" fill="#FF7900"/>
<path d="M65.5829 42.6083C58.4539 42.6083 52.6748 37.0062 52.6748 30.0959C52.6748 23.1856 58.4539 17.5835 65.5829 17.5835C72.712 17.5835 78.4911 23.1856 78.4911 30.0959C78.4911 37.0062 72.712 42.6083 65.5829 42.6083Z" fill="url(#paint3_radial_308_36042)"/>
<path d="M59.916 18.9802C60.8871 19.1097 61.8296 21.1671 61.8296 21.1671C61.8296 21.1671 66.4495 18.537 70.3814 22.1656C72.2976 24.3499 73.4562 27.1773 73.4562 30.2683C73.4562 36.3358 68.9944 41.395 63.0773 42.5327C63.6566 42.6479 64.256 42.7248 64.8646 42.7579C71.6487 42.3837 77.0366 36.9359 77.0366 30.2683C77.0366 23.356 71.8173 17.7885 64.6915 17.7885H64.6863C63.0031 17.9037 61.3623 18.2987 59.916 18.9802Z" fill="url(#paint4_linear_308_36042)"/>
<path d="M66.4129 23.5135C66.5965 23.5135 66.7559 23.382 66.7807 23.2004C66.8132 22.9596 67.4745 17.2162 58.387 10.3948C58.2236 10.273 57.9906 10.3025 57.8663 10.4591C57.74 10.6161 57.77 10.8422 57.932 10.9639C66.6473 17.5059 66.051 23.0533 66.0439 23.1086C66.0185 23.3052 66.163 23.4855 66.3654 23.5102C66.381 23.5122 66.3973 23.5135 66.4129 23.5135Z" fill="#6B3708"/>
<path d="M57.9308 10.9683C65.6215 16.7425 66.0621 21.7393 66.0524 22.8724C66.0569 22.8484 66.0621 22.8295 66.0667 22.8054C66.0966 22.5698 66.7404 17.0113 58.1091 10.3298C58.0154 10.3395 57.9262 10.3874 57.867 10.4642C57.7427 10.6227 57.7726 10.8483 57.9308 10.9683Z" fill="#AA621A"/>
<path d="M58.1608 22.411C58.2038 22.411 58.2467 22.4045 58.289 22.3888C58.481 22.3212 58.5806 22.1142 58.5097 21.9274C58.4114 21.6664 56.0246 15.4785 49.7072 11.9768C49.5296 11.8772 49.3024 11.9384 49.2002 12.1109C49.0987 12.2834 49.1605 12.5034 49.3388 12.6016C55.4128 15.9686 57.7891 22.1129 57.8126 22.1747C57.8672 22.3205 58.0098 22.411 58.1608 22.411Z" fill="#6B3708"/>
<path d="M49.3377 12.5964C54.889 15.6731 57.3499 21.0636 57.7509 22.0236C57.7854 21.9468 57.7854 21.8603 57.7561 21.7789C57.6565 21.5244 55.3544 15.5481 49.283 12.0151C49.2485 12.0392 49.2186 12.0685 49.1991 12.1069C49.1001 12.2794 49.1593 12.5 49.3377 12.5964Z" fill="#AA621A"/>
<path d="M65.6736 37.1175C63.773 37.1175 62.2324 35.6238 62.2324 33.7818C62.2324 31.9398 63.773 30.446 65.6736 30.446C67.5741 30.446 69.1148 31.9392 69.1148 33.7818C69.1148 35.6244 67.5741 37.1175 65.6736 37.1175Z" fill="url(#paint5_radial_308_36042)"/>
<path d="M56.7121 28.0539C57.3822 28.3061 58.2139 27.9122 58.5698 27.174C58.9256 26.4359 58.671 25.633 58.0009 25.3808C57.3308 25.1286 56.4991 25.5225 56.1432 26.2607C55.7873 26.9988 56.0421 27.8017 56.7121 28.0539Z" fill="url(#paint6_linear_308_36042)"/>
<path d="M57.1702 25.6077C57.8047 25.4342 57.9785 26.3484 57.3429 26.5221C56.7084 26.6957 56.5346 25.7815 57.1702 25.6077Z" fill="white"/>
<path d="M63.1838 30.8793C63.8539 31.1315 64.6856 30.7376 65.0415 29.9995C65.3973 29.2613 65.1427 28.4585 64.4725 28.2063C63.8025 27.954 62.9708 28.348 62.6149 29.0861C62.259 29.8243 62.5137 30.6271 63.1838 30.8793Z" fill="url(#paint7_linear_308_36042)"/>
<path d="M58.0855 30.3383C58.0855 30.3383 57.9648 31.0155 58.2346 31.3667C58.4149 31.6015 58.7757 32.0678 59.6776 31.8738C60.3225 31.6198 60.4297 31.1857 60.4297 31.1857C60.4297 31.1857 59.3407 31.6321 59.3305 31.6321C59.3202 31.6321 58.3775 31.0502 58.3775 31.0502L58.0855 30.3383Z" fill="#6B3708"/>
<path d="M60.1859 31.0656C59.9092 31.4629 59.3895 31.6635 58.947 31.4819C58.5045 31.3002 58.3201 30.8312 58.3559 30.3622" stroke="#AA621A" stroke-width="0.546734" stroke-miterlimit="10" stroke-linecap="round"/>
<path d="M64.6426 27.1159C64.6843 27.3171 65.314 27.2037 65.656 27.5473C65.998 27.8909 66.1134 28.0544 66.1967 28.0393C66.2799 28.0244 66.335 27.3758 65.6774 26.9295C65.0198 26.4831 64.5493 26.6661 64.6426 27.1159Z" fill="#AA621A"/>
<path d="M58.5031 24.4532C58.3886 24.5885 57.9794 24.2593 57.5873 24.3856C57.1953 24.5119 57.0432 24.5902 56.989 24.5467C56.9349 24.5031 57.1666 23.9936 57.8307 23.9122C58.4947 23.8307 58.7593 24.1507 58.5031 24.4532Z" fill="#AA621A"/>
<path d="M57.6542 27.1248L57.1883 27.3111C57.1118 27.3417 57.0746 27.4285 57.1052 27.5049C57.1358 27.5814 57.2226 27.6186 57.2991 27.5881L57.7649 27.4018C57.8414 27.3712 57.8786 27.2844 57.8481 27.2079C57.8175 27.1314 57.7307 27.0942 57.6542 27.1248Z" fill="white"/>
<path d="M64.1473 29.8643L63.6815 30.0506C63.605 30.0812 63.5678 30.168 63.5983 30.2444C63.6289 30.3209 63.7157 30.3581 63.7922 30.3276L64.2581 30.1413C64.3346 30.1107 64.3718 30.0239 64.3412 29.9474C64.3106 29.8709 64.2238 29.8337 64.1473 29.8643Z" fill="white"/>
<path d="M63.5793 28.491C64.2139 28.3175 64.3877 29.2317 63.7521 29.4054C63.1176 29.579 62.9438 28.6648 63.5793 28.491Z" fill="white"/>
<path d="M125.263 42.6311C124.82 42.6311 122.828 37.0983 122.386 37.0983C121.943 36.6557 121.5 35.9918 121.058 35.7705C120.394 35.3278 120.172 41.0819 120.394 41.7459C120.615 42.8524 120.172 45.0655 119.73 47.5C119.287 49.9344 120.172 51.9262 122.828 51.9262C124.82 51.9262 125.927 51.041 126.148 49.2705C126.148 49.0492 126.369 48.6065 126.812 48.8278C127.697 49.0492 128.582 50.377 129.467 50.1557C130.574 49.9344 130.353 49.4918 131.017 49.7131C131.681 49.7131 131.681 50.8196 131.681 51.4836C131.681 53.2541 131.902 54.8032 133.894 55.2459H134.115C136.328 55.2459 137.435 53.918 137.435 50.5983C138.099 48.1639 138.984 47.2787 140.754 47.2787C142.082 47.5 143.631 44.8442 144.738 44.1803C145.181 44.1803 149.386 38.6475 149.386 38.6475L140.312 45.2869" fill="#FF9D00"/>
<path d="M150.271 36.4343H144.074C144.074 36.877 144.074 38.2048 142.747 38.6475C142.304 38.8688 141.861 38.8688 141.64 39.0901C140.976 39.3114 140.533 39.754 140.312 40.4179V38.8688C140.312 36.6557 141.419 36.213 142.747 36.213C143.853 36.213 144.96 36.213 145.624 35.7704C145.845 35.5491 146.066 35.3278 146.066 35.1065C146.73 34.2212 146.509 33.336 147.394 32.8934C148.943 32.0081 148.722 29.795 148.722 29.795H143.189C143.189 30.0163 143.189 31.1229 142.083 31.3442H141.861C142.083 31.7868 142.083 32.2294 142.083 32.8934C142.083 35.5491 140.312 36.877 137.214 36.877H131.46C131.017 36.877 129.247 36.4343 129.247 35.9917V29.5737H126.148C125.706 30.6802 126.812 32.2294 125.927 32.6721C125.263 33.1147 124.82 33.336 124.599 34.2212C124.599 34.8852 124.599 35.5491 124.156 36.213H122.607C122.165 35.7704 121.279 25.5901 120.837 25.3688C120.837 25.3688 119.951 40.1966 120.173 40.8606C120.615 43.7376 120.394 43.9589 119.951 46.3934C119.509 48.8278 120.394 50.8196 123.05 50.8196C125.042 50.8196 126.148 49.9343 126.369 48.1638C126.369 47.9425 126.591 47.4999 127.033 47.7212C127.919 47.9425 128.804 49.2704 129.689 49.0491C130.796 48.8278 130.574 48.3852 131.238 48.6065C131.902 48.6065 131.902 49.713 131.902 50.377C131.902 52.1475 132.124 53.6966 134.115 54.1393H134.337C136.55 54.1393 137.656 52.8114 137.656 49.4917C137.656 46.3934 139.648 46.172 141.419 46.172C142.747 46.3934 144.296 46.172 145.402 45.5081C148.457 43.3271 149.758 40.7031 150.271 36.4343ZM137.656 43.5163H137.214C136.107 43.0737 135.443 40.8606 133.894 40.4179H133.23C133.451 40.1966 133.451 39.754 133.673 39.3114C133.894 38.8688 134.337 38.6475 135.001 38.8688C135.443 38.8688 135.886 39.3114 135.886 39.754C136.107 41.0819 136.55 43.0737 138.099 43.0737C138.542 43.0737 138.763 43.0737 138.984 42.8524C138.984 43.0737 138.542 43.5163 137.656 43.5163Z" fill="#FFD41F"/>
<path d="M154.918 35.5492L156.246 39.5328C156.467 40.6394 157.352 42.1885 157.574 43.0738C157.795 44.4016 157.795 44.623 158.016 46.1721C158.238 47.2787 158.68 48.1639 160.008 48.3853C161.336 48.6066 161.557 46.3935 162.221 46.3935C162.443 46.3935 162.664 46.6148 162.885 47.0574C163.77 49.2705 165.32 49.9344 166.205 49.9344C167.754 50.1557 168.861 49.7131 169.525 48.8279C170.852 47.5 171.295 46.3935 172.402 45.9508C173.066 45.7295 174.172 46.6148 175.279 46.3935C176.828 45.9508 177.492 41.9672 179.262 41.3033C179.262 41.3033 180.59 41.3033 181.254 40.6394C181.697 40.1967 181.475 37.9836 181.697 37.0984C171.074 42.1885 154.918 35.5492 154.918 35.5492Z" fill="#FF9D00"/>
<path d="M154.697 34.8853C154.697 34.8853 156.91 39.3115 157.132 39.7541C157.796 40.8607 158.902 42.6312 159.345 44.8443C159.566 45.9508 159.787 46.8361 161.115 47.0574C162.443 47.2787 162.886 45.0656 163.55 45.0656C163.771 45.0656 163.992 45.2869 164.214 45.7295C165.099 47.9426 166.648 48.6066 167.312 48.6066C168.861 48.8279 169.746 48.3852 170.632 47.5C171.738 46.1721 172.181 45.0656 173.509 44.623C174.173 44.4016 175.279 45.2869 176.164 45.0656C177.714 44.623 177.935 40.6393 179.484 39.9754C179.484 39.9754 180.812 39.9754 181.476 39.3115C181.919 38.8689 181.476 36.4344 181.919 35.7705C171.296 41.082 154.697 34.8853 154.697 34.8853Z" fill="#FFD41F"/>
<path d="M187.893 43.0738C186.787 42.8525 186.123 40.418 186.344 38.8689C186.344 37.3197 184.795 37.541 184.795 35.7705C184.795 35.1066 185.901 30.9017 186.123 30.6803C186.123 30.6803 187.229 28.4672 187.451 28.2459C187.451 28.2459 189.664 25.3689 189.885 24.9262C189.885 24.7049 190.328 23.3771 190.328 22.7131C191.656 34 198.959 42.6312 198.738 41.082C198.738 39.9754 204.27 44.1803 204.27 44.8443C204.27 44.8443 201.615 46.3935 200.508 46.8361C199.401 47.2787 197.41 46.6148 196.967 46.1721C196.524 45.9508 196.082 45.9508 195.86 46.3935C195.639 47.7213 195.86 49.7131 192.983 49.7131C190.106 49.9344 190.106 45.7295 190.549 43.2951C190.549 42.4098 190.549 42.6312 190.549 42.6312C189 43.2951 188.779 43.2951 187.893 43.0738Z" fill="#FF9D00"/>
<path d="M188.115 42.1885C187.008 41.9672 186.344 39.5328 186.566 37.9836C186.566 36.4344 185.017 36.6557 185.017 34.8853C185.017 34.2213 186.123 30.0164 186.344 29.7951C186.344 29.7951 187.451 27.582 187.672 27.3607C187.672 27.3607 189.885 24.4836 190.107 24.041C190.107 23.8197 190.549 22.4918 190.549 21.8279C191.877 33.1148 199.181 41.7459 198.959 40.1967C198.959 39.0902 203.607 43.959 203.607 44.623C203.607 44.623 201.836 45.5082 200.73 45.9508C199.623 46.3934 197.631 45.7295 197.189 45.2869C196.746 45.0656 196.303 45.0656 196.082 45.5082C195.861 46.8361 196.082 48.8279 193.205 48.8279C190.328 49.0492 190.328 44.8443 190.771 42.4098C190.771 41.5246 190.771 41.7459 190.771 41.7459C189.222 42.1888 189 42.1885 188.115 42.1885Z" fill="#FFD41F"/>
<path d="M201.172 45.2868C192.32 45.2868 186.123 39.5327 186.123 30.2377C186.123 20.9426 192.32 15.1885 201.172 15.1885C210.025 15.1885 216 20.9426 216 29.795V31.5655C216 32.0081 215.557 32.4508 214.894 32.4508H195.418C195.197 32.4508 194.976 32.6721 194.976 32.8934C195.418 36.4344 197.853 37.9836 200.508 37.9836C202.721 37.9836 204.049 37.0983 204.935 35.7704C205.156 35.3278 205.598 35.1065 206.262 35.1065H213.787C214.451 35.1065 214.894 35.7704 214.672 36.4344C213.123 41.5245 208.033 45.2868 201.172 45.2868ZM195.639 27.3606H206.262C206.484 27.3606 206.705 27.1393 206.705 26.918C206.484 24.0409 204.049 22.2704 201.172 22.2704C198.295 22.2704 196.082 23.8196 195.418 26.918C195.197 27.1393 195.418 27.3606 195.639 27.3606Z" fill="#FFD41F"/>
<path d="M168.639 44.6229C159.787 44.6229 153.59 38.8688 153.59 29.5737C153.59 20.2786 159.787 14.5245 168.639 14.5245C177.491 14.5245 183.467 20.2786 183.467 29.1311V30.9016C183.467 31.3442 183.024 31.7868 182.36 31.7868H162.885C162.664 31.7868 162.442 32.0081 162.442 32.2294C162.885 35.7704 165.319 37.3196 167.975 37.3196C170.188 37.3196 171.516 36.4344 172.401 35.1065C172.623 34.6639 173.065 34.4426 173.729 34.4426H181.254C181.918 34.4426 182.259 35.0449 182.139 35.7704C181.951 36.9072 181.881 38.7954 181.527 39.1237C180.788 39.8093 179.568 38.1205 178.819 38.8688C178.155 39.5327 177.713 40.418 177.049 41.0819C174.836 42.8524 172.401 44.6229 168.639 44.6229ZM163.106 26.6967H173.729C173.95 26.6967 174.172 26.4754 174.172 26.254C173.95 23.377 171.516 21.6065 168.639 21.6065C165.762 21.6065 163.77 23.1557 163.106 26.254C163.106 26.4754 162.885 26.6967 163.106 26.6967Z" fill="#FFD41F"/>
<path d="M187.008 35.3278C187.23 33.336 187.672 33.7786 187.672 32.6721C187.672 31.7868 187.894 30.6803 188.115 29.795C188.115 28.9098 188.336 27.8032 189.222 27.1393C189.443 26.918 189.664 26.918 189.885 26.918C190.107 26.918 190.549 27.1393 190.771 27.5819C191.877 29.1311 191.435 31.1229 191.656 32.8934C191.877 34.6639 192.763 36.213 193.648 37.5409C194.312 38.4262 194.754 39.0901 195.64 39.5327C196.746 40.1967 198.074 40.418 199.181 40.418C200.066 40.418 200.73 40.6393 201.615 40.6393C202.058 40.6393 202.722 40.8606 203.164 41.3032C203.607 41.9671 203.385 42.8524 202.722 43.5163C202.058 43.9589 201.172 43.959 200.287 43.959C199.402 43.7376 198.738 43.5163 197.853 43.295C196.967 43.0737 196.082 43.0737 195.418 43.7376C194.976 44.1803 194.754 44.6229 194.312 45.0655C193.869 45.5081 193.426 45.9508 192.763 45.9508C192.32 45.9508 191.877 45.5081 191.435 45.0655C191.213 44.6229 190.992 43.9589 190.992 43.5163C190.328 41.7458 189 40.6393 187.894 39.0901C187.23 38.2049 187.008 37.3196 186.787 36.4344C187.008 35.7704 187.008 35.3278 187.008 35.3278Z" fill="#FFE01F"/>
<path d="M124.155 47.2787C125.262 47.2787 126.147 47.9426 127.254 48.3853C128.581 49.0492 129.909 49.2705 131.459 49.4918C132.786 49.7131 134.114 49.9344 135.442 49.7131C137.434 49.4918 138.762 47.7213 140.311 46.8361C140.975 46.3935 142.303 47.0574 142.745 46.3935C143.188 45.7295 143.631 44.8443 143.188 44.1803C142.967 43.5164 142.303 43.2951 141.639 43.0738C137.877 41.7459 133.672 42.6312 129.688 42.6312C128.139 42.6312 126.59 42.6312 125.483 41.5246C124.598 40.6394 124.377 39.5328 123.713 38.4262C123.491 37.9836 123.049 37.541 122.606 37.3197C122.163 37.0984 121.5 37.0984 121.057 37.541C120.836 37.7623 120.614 38.4262 120.614 38.6476C120.614 41.7459 120.836 47.2787 121.942 47.5C122.385 47.7215 123.713 47.2787 124.155 47.2787Z" fill="#FFE01F"/>
<path d="M120.836 46.8361C120.836 47.5 121.057 48.1639 121.721 48.6066C122.385 48.8279 123.27 48.3853 123.934 47.9426C125.704 47.0574 127.696 47.2787 129.688 47.2787C130.352 47.2787 131.016 47.2787 131.016 46.6148C131.016 46.3935 131.016 45.9508 130.795 45.7295C130.573 45.5082 130.352 45.5082 129.909 45.2869C128.139 44.8443 126.368 45.0656 124.598 44.623C123.934 44.623 123.491 44.4017 122.827 43.959C121.721 43.0738 121.5 41.5246 121.5 40.1967C121.5 39.9754 121.5 39.5328 121.278 39.5328C120.836 39.0902 120.836 39.7541 120.836 39.9754C120.836 40.6394 120.614 41.5246 120.614 42.1885C120.614 43.959 120.614 45.5082 120.836 46.8361Z" fill="#FFE91D"/>
<path d="M154.032 31.7869C154.254 30.2377 154.696 28.4672 155.36 26.918C155.581 26.4754 155.803 26.0328 156.024 25.8115C156.467 25.5901 156.909 25.3688 157.352 25.8115C157.573 26.0328 157.573 26.4754 157.795 26.6967C158.016 28.4672 157.573 30.459 158.016 32.2295C158.68 35.1065 161.557 37.0983 164.434 38.4262C165.983 39.0901 167.532 39.7541 168.417 40.8606C169.303 42.1885 169.524 43.7377 169.303 45.5082C169.303 46.3934 169.081 47.0574 168.639 47.7213C168.196 48.3852 167.311 48.8278 166.426 48.3852C165.319 47.9426 165.225 46.4585 164.655 45.5082C163.299 42.9966 161.778 46.836 161.336 47.0574C160.893 47.2787 160.229 46.836 160.008 46.3934C159.565 45.2869 159.344 44.1803 159.122 42.8524C158.401 40.1465 156.65 38.0287 155.068 35.78C154.392 34.8179 154.032 33.6678 154.032 32.4915V31.7869Z" fill="#FFE01F"/>
<path d="M192.32 41.9672C192.32 41.9672 191.213 46.1721 191.877 46.836C192.541 47.5 193.648 47.2787 193.869 46.6147C193.648 46.1721 193.205 43.2951 192.984 42.1885C192.762 41.7459 192.32 41.9672 192.32 41.9672Z" fill="#FFE91D"/>
<path d="M160.451 45.0655C160.894 45.2868 161.115 45.0655 161.558 45.0655C162.664 44.6229 163.549 43.9589 163.549 42.8524C163.549 41.3032 160.511 38.9224 159.405 37.8158C159.183 38.701 158.268 38.5226 158.489 39.6291C160.039 42.0636 159.345 44.4016 160.451 45.0655Z" fill="#FFE91D"/>
<path d="M157.352 20.2786C154.254 23.1556 153.147 27.8032 154.032 31.7868C154.918 35.9917 157.573 39.5327 161.114 41.9671C161.336 42.1884 161.778 42.4097 162 42.1884C162.221 41.9671 162.221 41.9671 162.221 41.7458C162.221 40.4179 161.114 39.5327 160.229 38.6474C157.795 36.213 155.803 32.8933 155.36 29.5737C154.918 26.0327 156.688 21.6064 159.344 19.3933C159.123 19.3933 158.68 18.9507 157.352 20.2786Z" fill="#FFE91D"/>
<path d="M119.287 22.9344C119.951 23.8196 121.279 23.377 121.5 22.713C121.943 22.0491 121.279 15.8524 121.279 15.8524C120.394 14.5245 118.623 21.8278 119.287 22.9344Z" fill="#FFE01F"/>
<path d="M126.811 46.1722C126.811 46.1722 129.467 49.4918 131.68 47.2787C134.336 45.9509 133.451 50.3771 133.893 51.041C134.336 51.7049 135.885 53.4754 137.434 49.7131C137.877 45.0656 143.188 46.6148 139.647 45.7295C126.59 46.8361 125.483 44.623 125.483 44.8443C125.705 45.2869 126.811 46.1722 126.811 46.1722Z" fill="#FFE91D"/>
<path d="M200.951 44.1804C201.615 44.1804 202.058 44.1804 202.722 43.9591C205.156 43.2951 207.59 42.6312 209.803 41.3033C210.689 40.6394 211.574 39.9755 212.017 39.0902C208.918 40.4181 205.599 41.082 202.279 41.082C201.172 41.082 199.844 41.082 198.959 41.7459C198.738 41.9673 198.517 42.4099 198.517 42.6312C198.517 43.0738 198.959 43.5164 199.402 43.7378C199.844 43.9591 200.287 43.9591 200.951 44.1804Z" fill="#FFE91D"/>
<path d="M187.451 29.3525C187.009 31.1229 187.23 33.3361 188.779 34.6639C189.665 33.5574 189.886 32.0082 189.886 30.459C190.107 28.2459 190.328 26.0328 190.992 23.8197C191.435 22.2705 192.32 21.1639 193.205 19.8361C191.878 20.0574 190.328 22.7131 189.443 23.8197C188.779 25.5902 187.894 27.3606 187.451 29.3525Z" fill="#FFE91D"/>
<defs>
<linearGradient id="paint0_linear_308_36042" x1="54.9358" y1="29.5735" x2="86.5833" y2="29.5735" gradientUnits="userSpaceOnUse">
<stop offset="0.1317" stop-color="#FFCA00"/>
<stop offset="0.3966" stop-color="#FFC500"/>
<stop offset="0.7261" stop-color="#FFB500"/>
<stop offset="0.8892" stop-color="#FFAB00"/>
</linearGradient>
<linearGradient id="paint1_linear_308_36042" x1="90.5666" y1="29.3524" x2="114.026" y2="29.3524" gradientUnits="userSpaceOnUse">
<stop offset="0.1317" stop-color="#FFCA00"/>
<stop offset="0.3966" stop-color="#FFC500"/>
<stop offset="0.7261" stop-color="#FFB500"/>
<stop offset="0.8892" stop-color="#FFAB00"/>
</linearGradient>
<linearGradient id="paint2_linear_308_36042" x1="1.34667" y1="25.7008" x2="53.6913" y2="25.7008" gradientUnits="userSpaceOnUse">
<stop offset="0.1317" stop-color="#FFCA00"/>
<stop offset="0.3966" stop-color="#FFC500"/>
<stop offset="0.7261" stop-color="#FFB500"/>
<stop offset="0.8892" stop-color="#FFAB00"/>
</linearGradient>
<radialGradient id="paint3_radial_308_36042" cx="0" cy="0" r="1" gradientUnits="userSpaceOnUse" gradientTransform="translate(53.8218 17.4363) rotate(-180) scale(30.5213 29.5857)">
<stop offset="0.4824" stop-color="#FFFF1D"/>
<stop offset="0.8926" stop-color="#FF8500"/>
</radialGradient>
<linearGradient id="paint4_linear_308_36042" x1="73.6841" y1="41.4955" x2="60.1609" y2="16.3405" gradientUnits="userSpaceOnUse">
<stop offset="0.5399" stop-color="#331803"/>
<stop offset="0.8926" stop-color="#FFD814"/>
</linearGradient>
<radialGradient id="paint5_radial_308_36042" cx="0" cy="0" r="1" gradientUnits="userSpaceOnUse" gradientTransform="translate(65.7159 33.7817) rotate(180) scale(3.44117 3.33567)">
<stop stop-color="#FF8500"/>
<stop offset="0.09" stop-color="#FF8600" stop-opacity="0.9744"/>
<stop offset="0.2167" stop-color="#FF8A01" stop-opacity="0.9024"/>
<stop offset="0.365" stop-color="#FF9103" stop-opacity="0.7842"/>
<stop offset="0.5298" stop-color="#FF9B05" stop-opacity="0.6196"/>
<stop offset="0.7082" stop-color="#FFA708" stop-opacity="0.4084"/>
<stop offset="0.8951" stop-color="#FFB60B" stop-opacity="0.1551"/>
<stop offset="1" stop-color="#FFC00E" stop-opacity="0"/>
</radialGradient>
<linearGradient id="paint6_linear_308_36042" x1="56.3007" y1="26.1377" x2="58.5468" y2="27.3707" gradientUnits="userSpaceOnUse">
<stop offset="0.2959" stop-color="#AA621A"/>
<stop offset="0.984" stop-color="#452B21"/>
</linearGradient>
<linearGradient id="paint7_linear_308_36042" x1="63.0233" y1="28.899" x2="65.0971" y2="30.5577" gradientUnits="userSpaceOnUse">
<stop offset="0.2959" stop-color="#AA621A"/>
<stop offset="0.984" stop-color="#452B21"/>
</linearGradient>
</defs>
</svg>
