<svg width="200" height="48" viewBox="0 0 200 48" fill="none" xmlns="http://www.w3.org/2000/svg">
<g clip-path="url(#clip0_8796_614154)">
<path d="M21.1628 14.8271H28.9641L34.0338 28.1611C34.2479 28.7456 34.5604 29.0408 34.9597 29.0408H35.6311C36.0767 29.0408 36.3661 28.7399 36.4876 28.138L39.1497 14.8271H44.1268L40.2841 31.1011C40.1915 31.4541 40.0468 31.7724 39.8442 32.0502C39.6417 32.328 39.4102 32.5653 39.1497 32.7563C38.8893 32.9472 38.6115 33.0977 38.3164 33.1961C38.0212 33.2945 37.7434 33.3466 37.483 33.3466H33.9412C33.1541 33.3466 32.4538 33.1382 31.8462 32.7215C31.2385 32.3048 30.7987 31.7724 30.5382 31.1242L25.8158 19.1329H24.3111L19.5886 31.1242C19.3282 31.7724 18.8884 32.3048 18.2807 32.7215C17.673 33.1382 16.9728 33.3466 16.1857 33.3466H12.6438C11.9783 33.3466 11.388 33.1498 10.8729 32.7563C10.3578 32.3627 10.0106 31.8129 9.84278 31.1011L6 14.8271H10.9771L13.6393 28.138C13.7492 28.7399 14.0328 29.0408 14.4958 29.0408H15.1671C15.5549 29.0408 15.8616 28.7456 16.0931 28.1611L21.1628 14.8271Z" fill="white"/>
<path d="M45.4102 14.8271H49.9474V33.3466H45.4102V14.8271Z" fill="white"/>
<path d="M59.515 20.5219C59.1909 20.1341 58.7915 19.81 58.3228 19.538C57.854 19.266 57.3679 19.1329 56.8759 19.1329H56.6445V33.3466H52.2461V14.8271H56.8759C58.1086 14.8271 59.1504 15.0297 59.9895 15.429C60.8287 15.8284 61.6389 16.465 62.4086 17.3273L71.3674 27.6518C71.6915 28.0222 72.085 28.3463 72.548 28.6241C73.011 28.9019 73.4913 29.0408 73.9833 29.0408H74.2147V14.8271H78.6363V33.3466H73.9833C72.7043 33.3466 71.6162 33.1382 70.7308 32.7215C69.8453 32.3048 69.0235 31.6393 68.2654 30.7307L59.515 20.5219Z" fill="white"/>
<path d="M106.941 14.8271V19.1329H86.5006C85.7887 19.1329 85.4357 19.3586 85.4357 19.8042V21.2395C85.4357 21.6851 85.7887 21.9108 86.5006 21.9108H101.964C105.668 21.9108 107.52 23.3866 107.52 26.3323V28.8556C107.52 31.8476 105.662 33.3466 101.941 33.3466H81.5003V29.0408H101.941C102.636 29.0408 102.983 28.8267 102.983 28.3926V26.8879C102.983 26.4423 102.636 26.2166 101.941 26.2166H86.4774C82.7562 26.2166 80.8984 24.8971 80.8984 22.2581V19.3413C80.8984 16.3318 82.7677 14.8271 86.5006 14.8271H106.941Z" fill="white"/>
<path d="M130.183 29.7121H115.159L113.122 33.3466H107.891L117.59 16.4013C117.729 16.1409 117.874 15.9094 118.018 15.7184C118.163 15.5274 118.337 15.3654 118.539 15.2323C118.742 15.0992 118.979 15.0008 119.257 14.9313C119.535 14.8619 119.882 14.8271 120.299 14.8271H124.975C126.254 14.8271 127.197 15.3422 127.799 16.3781L137.475 33.3466H132.267L130.183 29.7121ZM117.359 25.6379H127.961L124.743 19.9894C124.575 19.6827 124.384 19.4628 124.176 19.3297C123.968 19.1966 123.754 19.1329 123.54 19.1329H121.757C121.265 19.1329 120.854 19.4281 120.53 20.0126L117.359 25.6379Z" fill="white"/>
<path d="M145.898 20.5219C145.574 20.1341 145.174 19.81 144.706 19.538C144.237 19.266 143.751 19.1329 143.259 19.1329H143.027V33.3466H138.629V14.8271H143.259C144.491 14.8271 145.533 15.0297 146.372 15.429C147.211 15.8284 148.022 16.465 148.791 17.3273L157.75 27.6518C158.074 28.0222 158.468 28.3463 158.931 28.6241C159.394 28.9019 159.874 29.0408 160.366 29.0408H160.598V14.8271H165.019V33.3466H160.366C159.087 33.3466 157.999 33.1382 157.114 32.7215C156.228 32.3048 155.406 31.6393 154.648 30.7307L145.898 20.5219Z" fill="white"/>
<path d="M193.36 29.0408V33.3466H172.919C169.198 33.3466 167.34 31.8361 167.34 28.8093V19.3413C167.34 16.3318 169.198 14.8271 172.919 14.8271H193.29V19.1329H172.919C172.224 19.1329 171.877 19.4339 171.877 20.0357V21.9108H193.151V26.2166H171.877V28.1148C171.877 28.7341 172.224 29.0408 172.919 29.0408H193.36Z" fill="white"/>
<path d="M116.449 0C116.519 1.30215 117.063 2.51748 117.989 3.44345C118.921 4.37521 120.148 4.91922 121.455 4.98288C120.148 5.05233 118.926 5.59055 117.989 6.52809C117.057 7.45985 116.519 8.6694 116.449 9.97155C116.38 8.6694 115.842 7.45406 114.91 6.52809C113.978 5.59633 112.757 5.05233 111.449 4.98288C112.757 4.91922 113.978 4.37521 114.91 3.44345C115.842 2.5117 116.38 1.30215 116.449 0Z" fill="white"/>
<path d="M83.0002 37.687C83.0697 38.9892 83.6137 40.2045 84.5397 41.1305C85.4714 42.0622 86.6983 42.6062 88.0063 42.6699C86.6983 42.7393 85.4772 43.2776 84.5397 44.2151C83.6079 45.1469 83.0697 46.3564 83.0002 47.6586C82.9308 46.3564 82.3926 45.1411 81.4608 44.2151C80.5291 43.2833 79.3079 42.7393 78 42.6699C79.3079 42.6062 80.5291 42.0622 81.4608 41.1305C82.3926 40.1987 82.9308 38.9892 83.0002 37.687Z" fill="white"/>
<path d="M82.8771 4.02219C88.3982 -0.584509 98.4681 1.9677 107.213 9.85581H108.914C99.533 0.914407 88.3056 -2.00819 82.1363 3.13674C80.1918 4.76297 78.9128 7.02002 78.3398 9.85581H79.5262C80.0645 7.3962 81.1872 5.42851 82.8771 4.02219Z" fill="white"/>
<path d="M116.709 44.6086C110.997 49.3716 100.18 46.3796 91.2042 37.687H89.5664C96.0713 44.3251 103.699 48 109.909 48C112.82 48 115.424 47.1898 117.45 45.4999C119.626 43.6885 120.98 40.98 121.42 37.687H120.262C119.857 40.627 118.659 42.9882 116.709 44.6086Z" fill="white"/>
</g>
<defs>
<clipPath id="clip0_8796_614154">
<rect width="187.359" height="48" fill="white" transform="translate(6)"/>
</clipPath>
</defs>
</svg>
